<svg xmlns="http://www.w3.org/2000/svg" xmlns:xlink="http://www.w3.org/1999/xlink" width="49.409" height="49.409" viewBox="0 0 49.409 49.409">
  <defs>
    <clipPath id="clip-path">
      <rect id="Rectángulo_2097" data-name="Rectángulo 2097" width="49.409" height="49.409" fill="#00bcd4"/>
    </clipPath>
  </defs>
  <g id="Grupo_134643" data-name="Grupo 134643" opacity="0.5">
    <rect id="Rectángulo_2094" data-name="Rectángulo 2094" width="1.544" height="1.544" transform="translate(13.896 38.601)" fill="#00bcd4"/>
    <rect id="Rectángulo_2095" data-name="Rectángulo 2095" width="1.544" height="1.544" transform="translate(40.145 2.316)" fill="#00bcd4"/>
    <g id="Grupo_4523" data-name="Grupo 4523">
      <g id="Grupo_4522" data-name="Grupo 4522" clip-path="url(#clip-path)">
        <rect id="Rectángulo_2096" data-name="Rectángulo 2096" width="1.544" height="1.544" transform="translate(3.088 13.896)" fill="#00bcd4"/>
        <path id="Trazado_1177" data-name="Trazado 1177" d="M773.4,506.7a2.7,2.7,0,1,0-2.7,2.7,2.7,2.7,0,0,0,2.7-2.7Zm-2.7,1.158a1.158,1.158,0,1,1,1.158-1.158,1.158,1.158,0,0,1-1.158,1.158Zm0,0" transform="translate(-767.999 -483.927)" fill="#00bcd4"/>
      </g>
    </g>
    <path id="Trazado_1178" data-name="Trazado 1178" d="M1052.7,618a2.7,2.7,0,1,0,2.7,2.7,2.7,2.7,0,0,0-2.7-2.7Zm0,3.86a1.158,1.158,0,1,1,1.158-1.158,1.158,1.158,0,0,1-1.158,1.158Zm0,0" transform="translate(-1013.715 -583.259)" fill="#00bcd4"/>
    <path id="Trazado_1179" data-name="Trazado 1179" d="M1088.866,497.357l-2.3-1.256-1.256-2.3a.772.772,0,0,0-1.354,0l-1.256,2.3-2.3,1.256a.772.772,0,0,0,0,1.354l2.3,1.257,1.256,2.3a.772.772,0,0,0,1.354,0l1.256-2.3,2.3-1.257a.772.772,0,0,0,0-1.354Zm-3.236,1.365a.771.771,0,0,0-.307.307l-.687,1.257-.687-1.256a.775.775,0,0,0-.307-.307l-1.257-.688,1.257-.687a.774.774,0,0,0,.307-.307l.688-1.257.688,1.257a.774.774,0,0,0,.307.307l1.257.687Zm0,0" transform="translate(-1039.859 -474.693)" fill="#00bcd4"/>
    <path id="Trazado_1180" data-name="Trazado 1180" d="M806.866,579.955l-2.3-1.256-1.256-2.3a.772.772,0,0,0-1.355,0l-1.256,2.3-2.3,1.256a.772.772,0,0,0,0,1.355l2.3,1.256,1.256,2.3a.772.772,0,0,0,1.355,0l1.256-2.3,2.3-1.256a.772.772,0,0,0,0-1.355Zm-3.236,1.365a.773.773,0,0,0-.307.307l-.687,1.257-.688-1.257a.774.774,0,0,0-.307-.307l-1.257-.687,1.257-.688a.774.774,0,0,0,.307-.307l.687-1.257.688,1.257a.774.774,0,0,0,.307.307l1.257.687Zm0,0" transform="translate(-794.143 -546.663)" fill="#00bcd4"/>
    <path id="Trazado_1181" data-name="Trazado 1181" d="M820.361,378.5A4.651,4.651,0,0,0,819,372.345l-.043-.029,9.366-13.847a.772.772,0,0,0-.248-1.1l-13.124-7.72a.772.772,0,0,0-1.03.232l-.906,1.332v-2.442a.772.772,0,0,0-.772-.772h-13.9a.772.772,0,0,0-.772.772v.249l-11.095,4.438a.772.772,0,0,0-.413,1.043l10.808,23.16a.772.772,0,0,0,1,.386l1.761-.734L801.5,379.8l.016.02a3.2,3.2,0,0,1,.7,1.993v15.594h1.544V386.5a7.321,7.321,0,0,1,1.769-4.465c1.443-1.58,3.705-2.381,6.723-2.381a.771.771,0,0,0,.6-.289l3.088-3.86a.772.772,0,0,0-.257-1.173,7.805,7.805,0,0,1-2-1.569,5.4,5.4,0,0,1-1.509-3.265l5.948,4.118a3.1,3.1,0,0,1,.918,4.081l-5.885,8.464a.774.774,0,0,0-.138.441v10.808h1.544V386.843l5.765-8.292c.011-.016.022-.033.032-.049Zm-21.236-28.958h12.352v3.94l-3.13,4.6-2.141-2.141a.772.772,0,0,0-1.092,0l-2.729,2.729a.772.772,0,0,0,0,1.092l2.729,2.729a.774.774,0,0,0,.155.119l-4.466,6.567a.771.771,0,0,0,.218,1.082l3.758,2.441h-5.654Zm6.534,11.315-1.637-1.637,1.637-1.638,1.638,1.638Zm-17.842-6.27,9.763-3.905v22.792a.772.772,0,0,0,.772.772h4.632l-5.018,2.091Zm24.058,23.523c-3.287.067-5.8,1.036-7.489,2.881a7.735,7.735,0,0,0-.63.789,4.754,4.754,0,0,0-1.028-2.915l-1.619-2.164,5.987-2.495,5.2,3.378Zm.673-4.307a9.666,9.666,0,0,0,1.638,1.417l-.922,1.152L802.522,369.4l12.274-18.05,11.792,6.937-8.9,13.152-5.777-4a.772.772,0,0,0-1.2.508,6.789,6.789,0,0,0,1.833,5.859Zm0,0" transform="translate(-783.684 -348)" fill="#00bcd4"/>
    <path id="Trazado_1182" data-name="Trazado 1182" d="M990.987,455.189h3.86a.772.772,0,0,0,.772-.772v-3.86a.772.772,0,0,0-.772-.772h-3.86a.772.772,0,0,0-.772.772v3.86a.771.771,0,0,0,.772.772Zm.772-3.86h2.316v2.316h-2.316Zm0,0" transform="translate(-961.623 -436.688)" fill="#00bcd4"/>
    <path id="Trazado_1183" data-name="Trazado 1183" d="M825.088,402h-2.316a.772.772,0,0,0-.772.772v2.316a.772.772,0,0,0,.772.772h2.316a.772.772,0,0,0,.772-.772v-2.316a.772.772,0,0,0-.772-.772Zm-.772,2.316h-.772v-.772h.772Zm0,0" transform="translate(-815.052 -395.052)" fill="#00bcd4"/>
    <path id="Trazado_1184" data-name="Trazado 1184" d="M896.41,369.363a.77.77,0,0,0,.546-.226l1.638-1.637a.772.772,0,0,0,0-1.092l-1.638-1.638a.772.772,0,0,0-1.092,0l-1.638,1.637a.773.773,0,0,0,0,1.092l1.638,1.637a.77.77,0,0,0,.546.226Zm0-2.956.546.546-.546.546-.546-.546Zm0,0" transform="translate(-877.788 -362.414)" fill="#00bcd4"/>
    <path id="Trazado_1185" data-name="Trazado 1185" d="M1002.772,399.86h2.316a.772.772,0,0,0,.772-.772v-2.316a.772.772,0,0,0-.772-.772h-2.316a.772.772,0,0,0-.772.772v2.316a.772.772,0,0,0,.772.772Zm.772-2.316h.772v.772h-.772Zm0,0" transform="translate(-971.891 -389.824)" fill="#00bcd4"/>
  </g>
</svg>
