<svg xmlns="http://www.w3.org/2000/svg" width="50.464" height="50.464" viewBox="0 0 50.464 50.464">
  <g id="Grupo_134646" data-name="Grupo 134646" transform="translate(-1105 -499)">
    <g id="Grupo_134645" data-name="Grupo 134645" transform="translate(990.719 294.715)">
      <path id="Trazado_195206" data-name="Trazado 195206" d="M138.442,204.285h2.167a.663.663,0,0,0,.174.079,9.993,9.993,0,0,1,5.1,2.347,8.986,8.986,0,0,0,2.249,1.259,8.638,8.638,0,0,0,3.21.261,9.269,9.269,0,0,1,8.564,5.422,9.113,9.113,0,0,1,.887,4.822,6.479,6.479,0,0,0,1.724,4.956,8.864,8.864,0,0,1,1.987,3.9c.089.362.162.727.242,1.091v2.167a.639.639,0,0,0-.081.173,9.409,9.409,0,0,1-2.367,5.089,4.982,4.982,0,0,0-1.3,2.5,25.294,25.294,0,0,0-.193,2.978,9.327,9.327,0,0,1-5.716,8.683,10.2,10.2,0,0,1-4.952.754,6.033,6.033,0,0,0-4.33,1.558,9.362,9.362,0,0,1-12.6-.027,5.222,5.222,0,0,0-2.59-1.337,20.156,20.156,0,0,0-2.931-.17,9.517,9.517,0,0,1-8.869-6.179,11.884,11.884,0,0,1-.562-4.6,6.041,6.041,0,0,0-1.559-4.23,9.356,9.356,0,0,1,.007-12.562,5.224,5.224,0,0,0,1.348-2.584,24.8,24.8,0,0,0,.189-2.978,9.31,9.31,0,0,1,5.29-8.462,9,9,0,0,1,4.906-.954,6.752,6.752,0,0,0,5.022-1.71,10.669,10.669,0,0,1,2.5-1.526A16.993,16.993,0,0,1,138.442,204.285Zm18.377,14.138c.012-.18.028-.36.036-.541a5.548,5.548,0,0,0-5.862-5.694,10.168,10.168,0,0,1-7.7-2.445,5.428,5.428,0,0,0-7.531.006,10.1,10.1,0,0,1-7.606,2.443,5.465,5.465,0,0,0-5.757,4.138,11.222,11.222,0,0,0-.125,2.436,10.6,10.6,0,0,1-2.628,7.125,5.383,5.383,0,0,0,0,7.23c.223.263.448.525.65.8a10.352,10.352,0,0,1,1.922,7,5.527,5.527,0,0,0,5.894,5.892,10.155,10.155,0,0,1,7.654,2.442,5.435,5.435,0,0,0,7.533,0,10.092,10.092,0,0,1,7.654-2.442,5.546,5.546,0,0,0,5.9-5.891,10.192,10.192,0,0,1,2.442-7.657,5.425,5.425,0,0,0-.006-7.532A10.29,10.29,0,0,1,156.819,218.423Z" transform="translate(0)" fill="#00bcd4"/>
      <path id="Trazado_195208" data-name="Trazado 195208" d="M202.089,307.674a15.762,15.762,0,1,1,15.766-15.71A15.753,15.753,0,0,1,202.089,307.674Zm.025-3.94a11.822,11.822,0,1,0-11.843-11.789A11.88,11.88,0,0,0,202.114,303.733Z" transform="translate(-62.567 -62.407)" fill="#00bcd4"/>
    </g>
    <path id="Trazado_195211" data-name="Trazado 195211" d="M233.434,325.2a1.6,1.6,0,0,0-.191-.262q-1.357-1.335-2.723-2.661c-.206-.2-.409-.4-.291-.73s.4-.387.7-.429c1.287-.182,2.574-.368,3.859-.571.1-.016.22-.152.275-.26.568-1.133,1.126-2.27,1.683-3.408.128-.262.263-.493.61-.5.364,0,.5.234.638.509.556,1.139,1.121,2.273,1.677,3.412a.407.407,0,0,0,.357.266c1.3.174,2.6.37,3.895.561a.637.637,0,0,1,.588.43.6.6,0,0,1-.23.654c-.925.9-1.845,1.811-2.779,2.7a.547.547,0,0,0-.17.561c.23,1.281.463,2.563.658,3.85a.9.9,0,0,1-.225.614c-.167.2-.421.146-.647.026-1.15-.608-2.3-1.208-3.451-1.825a.541.541,0,0,0-.583-.006c-1.114.6-2.238,1.183-3.356,1.777-.26.138-.514.245-.783.03s-.235-.474-.182-.769c.227-1.258.438-2.519.654-3.779C233.422,325.361,233.423,325.326,233.434,325.2Z" transform="translate(892.866 199.986)" fill="#00bcd4"/>
  </g>
</svg>
