<svg id="Grupo_134642" data-name="Grupo 134642" xmlns="http://www.w3.org/2000/svg" xmlns:xlink="http://www.w3.org/1999/xlink" width="49.409" height="49.409" viewBox="0 0 49.409 49.409">
  <defs>
    <clipPath id="clip-path">
      <rect id="Rectángulo_2104" data-name="Rectángulo 2104" width="49.409" height="49.409" fill="#00bcd4"/>
    </clipPath>
  </defs>
  <path id="Trazado_1198" data-name="Trazado 1198" d="M2270.686,283.891a2.7,2.7,0,1,0-2.7-2.7,2.7,2.7,0,0,0,2.7,2.7Zm0-3.86a1.158,1.158,0,1,1-1.158,1.158,1.158,1.158,0,0,1,1.158-1.158Zm0,0" transform="translate(-2239.419 -276.943)" fill="#00bcd4"/>
  <rect id="Rectángulo_2101" data-name="Rectángulo 2101" width="1.544" height="1.544" transform="translate(16.212 4.632)" fill="#00bcd4"/>
  <rect id="Rectángulo_2102" data-name="Rectángulo 2102" width="1.544" height="1.544" transform="translate(26.249 28.565)" fill="#00bcd4"/>
  <rect id="Rectángulo_2103" data-name="Rectángulo 2103" width="1.544" height="1.544" transform="translate(38.601 4.632)" fill="#00bcd4"/>
  <path id="Trazado_1199" data-name="Trazado 1199" d="M2196.549,509.187l-1.256-2.3a.772.772,0,0,0-1.355,0l-1.256,2.3-2.3,1.256a.772.772,0,0,0,0,1.355l2.3,1.256,1.256,2.3a.772.772,0,0,0,1.355,0l1.256-2.3,2.3-1.256a.772.772,0,0,0,0-1.355Zm-.939,2.621a.775.775,0,0,0-.307.307l-.687,1.257-.688-1.257a.774.774,0,0,0-.307-.307l-1.257-.687,1.257-.688a.775.775,0,0,0,.307-.307l.688-1.257.688,1.257a.777.777,0,0,0,.307.307l1.257.688Zm0,0" transform="translate(-2171.456 -475.607)" fill="#00bcd4"/>
  <g id="Grupo_4529" data-name="Grupo 4529" transform="translate(0 0)">
    <g id="Grupo_4528" data-name="Grupo 4528" clip-path="url(#clip-path)">
      <path id="Trazado_1200" data-name="Trazado 1200" d="M2060.682,285.054l1.256,2.3a.772.772,0,0,0,1.355,0l1.256-2.3,2.3-1.256a.772.772,0,0,0,0-1.355l-2.3-1.256-1.256-2.3a.773.773,0,0,0-1.355,0l-1.256,2.3-2.3,1.256a.772.772,0,0,0,0,1.355Zm.939-2.621a.773.773,0,0,0,.307-.307l.687-1.257.688,1.257a.776.776,0,0,0,.307.307l1.257.687-1.257.688a.774.774,0,0,0-.307.307l-.687,1.257-.687-1.257a.775.775,0,0,0-.307-.307l-1.257-.687Zm0,0" transform="translate(-2056.44 -276.944)" fill="#00bcd4"/>
      <path id="Trazado_1201" data-name="Trazado 1201" d="M2086.016,279.05l-.3-1.229a2.694,2.694,0,0,0-2.627-2.069h-1a2.715,2.715,0,0,0-2.53,1.753l-.5,1.339a2.683,2.683,0,0,0-1.76.787l-1.186,1.185a1.148,1.148,0,0,1-.819.339h-3.833v-6.562a2.7,2.7,0,0,0-2.7-2.7,1.159,1.159,0,0,1-1.158-1.158v-4.246h-1.544v4.246a2.7,2.7,0,0,0,2.7,2.7,1.159,1.159,0,0,1,1.158,1.158v6.562h-3.832a1.15,1.15,0,0,1-.819-.339l-1.185-1.186a2.689,2.689,0,0,0-1.285-.718l-.263-1.092a2.694,2.694,0,0,0-2.627-2.069h-1a2.715,2.715,0,0,0-2.53,1.753l-.522,1.393a2.707,2.707,0,0,0-2.145,2.644v3.833l-1.972,1.315a.764.764,0,0,0-.153.134l-5.4,6.176a.771.771,0,0,0-.184.608l1.505,11.531V315.9h1.544V305.089a.757.757,0,0,0-.006-.1l-1.466-11.234,5.107-5.836,1.237-.825,1.271,7.628-1.409,3.1,1.405.639,3.86-8.492a.773.773,0,0,0,.069-.32v-2.123a.193.193,0,0,1,.193-.193h1.158a.193.193,0,0,1,.193.193v11.387c0,4.652-4.55,5.384-4.741,5.412a.773.773,0,0,0-.66.834l.769,8.457V315.9h1.544v-2.316c0-.023,0-.047,0-.07l-.711-7.819a8.484,8.484,0,0,0,2.29-1.015,6.493,6.493,0,0,0,3.053-5.541l3.974-6.536.018-.031a1.156,1.156,0,0,1,1.017-.6h6.926a1.152,1.152,0,0,1,1.036.64.3.3,0,0,0,.015.028l4.075,7.383a6.429,6.429,0,0,0,2.983,4.661,8.507,8.507,0,0,0,2.29,1.015l-.71,7.819a.669.669,0,0,0,0,.07V315.9h1.544v-2.281l.769-8.457a.772.772,0,0,0-.66-.834,6.874,6.874,0,0,1-2.394-.947,4.988,4.988,0,0,1-2.348-4.465V288.3a.193.193,0,0,1,.193-.193h1.158a.193.193,0,0,1,.193.193v2.9a.777.777,0,0,0,.1.375l3.86,6.948,1.35-.75-1.453-2.615,1.344-8.058,1.237.825,5.107,5.836-1.467,11.235a.757.757,0,0,0-.007.1V315.9h1.544V305.139l1.505-11.531a.771.771,0,0,0-.184-.608l-5.4-6.176a.77.77,0,0,0-.153-.134l-1.972-1.315v-3.833a2.707,2.707,0,0,0-1.658-2.492Zm-5.01-1a1.163,1.163,0,0,1,1.084-.751h1a1.155,1.155,0,0,1,1.126.887l.159.657h-3.668Zm-23.188,0a1.163,1.163,0,0,1,1.084-.751h1a1.156,1.156,0,0,1,1.126.887l.158.657h-3.669Zm26,12.945V288.3a1.739,1.739,0,0,0-1.737-1.737h-1.158a1.739,1.739,0,0,0-1.737,1.737v8.391l-2.644-4.79a2.687,2.687,0,0,0-2.408-1.478H2067.2a2.7,2.7,0,0,0-2.363,1.391l-2.643,4.346v-8.632a1.739,1.739,0,0,0-1.544-1.725v-.784h1.544v-1.544h-1.544v-1.544h-1.544v1.544h-1.544v1.544h1.544v.784a1.739,1.739,0,0,0-1.544,1.725v1.956l-1.236,2.721-1.08-6.477v-4.182a1.159,1.159,0,0,1,1.158-1.158h5.762a1.149,1.149,0,0,1,.819.339l1.185,1.186a2.685,2.685,0,0,0,1.911.791h9.209a2.685,2.685,0,0,0,1.911-.791l1.186-1.186a1.147,1.147,0,0,1,.819-.339h5.763a1.159,1.159,0,0,1,1.158,1.158v4.182l-1.21,7.259Zm0,0" transform="translate(-2045.984 -266.488)" fill="#00bcd4"/>
    </g>
  </g>
  <path id="Trazado_1202" data-name="Trazado 1202" d="M2264.3,404.488a2.316,2.316,0,1,0,2.316,2.316,2.316,2.316,0,0,0-2.316-2.316Zm0,3.088a.772.772,0,1,1,.772-.772.772.772,0,0,1-.772.772Zm0,0" transform="translate(-2234.192 -386.732)" fill="#00bcd4"/>
  <path id="Trazado_1203" data-name="Trazado 1203" d="M2306.3,380.488a2.316,2.316,0,1,0,2.316,2.316,2.316,2.316,0,0,0-2.316-2.316Zm0,3.088a.772.772,0,1,1,.772-.772.772.772,0,0,1-.772.772Zm0,0" transform="translate(-2270.788 -365.82)" fill="#00bcd4"/>
</svg>
