<svg xmlns="http://www.w3.org/2000/svg" width="127.308" height="127.571" viewBox="0 0 127.308 127.571">
  <g id="Grupo_134653" data-name="Grupo 134653" transform="translate(-125.976 -215.95)">
    <path id="Trazado_195215" data-name="Trazado 195215" d="M233.626,291.783q0,2.083,0,4.167c-.529.015-1.058.042-1.588.042-12.153,0-24.306-.015-36.458.009a10.573,10.573,0,0,0-10.752,10.769c-.025,11.246-.005,22.493-.009,33.74a10.908,10.908,0,0,0,1.5,5.565c.152.263.546.487.363.84H138.247V228c.279-.015.455-.032.63-.032q33.74,0,67.481-.021a1.938,1.938,0,0,1,1.82,1.029q-.007,3.727-.013,7.453c-1.674.443-2.121.987-2.124,2.674q-.012,5.77,0,11.541c0,2.154.686,2.832,2.862,2.832q10.525,0,21.051,0H231.5v1.539q0,16.98,0,33.96C231.5,290.8,231.909,291.325,233.626,291.783Zm-61.535-42.559c0-2.175.013-4.12,0-6.065a2.131,2.131,0,0,0-2.441-2.434c-2.519-.016-5.038-.008-7.556,0-2.026,0-2.721.688-2.728,2.684-.006,1.89,0,3.781,0,5.818-2.044,0-3.932,0-5.82,0-1.94.007-2.658.708-2.665,2.613q-.013,3.719,0,7.438c0,2.011.693,2.7,2.711,2.7,1.884.006,3.768,0,5.775,0,0,2.119-.011,4.058,0,6,.012,1.747.759,2.494,2.507,2.5,2.475.013,4.949.006,7.424,0,2.113,0,2.791-.669,2.8-2.751,0-1.885,0-3.77,0-5.752,2.1,0,3.992.007,5.886,0,1.848-.009,2.59-.731,2.6-2.548q.017-3.852,0-7.7c-.01-1.745-.76-2.487-2.511-2.5C176.129,249.214,174.2,249.224,172.091,249.224Zm23.344,38.266H175.153a6.693,6.693,0,0,0-1.19.026,2.116,2.116,0,0,0-.039,4.192,5.276,5.276,0,0,0,1.057.032h40.827a7.551,7.551,0,0,0,.927-.02,2.132,2.132,0,0,0,1.939-2.152,2.088,2.088,0,0,0-1.9-2.053,7.662,7.662,0,0,0-1.191-.026Zm6.362-8.5c-4.815,0-9.631.012-14.447-.009a2.233,2.233,0,0,0-2.449,1.6c-.449,1.462.706,2.662,2.549,2.663q14.248.009,28.5,0c1.723,0,2.778-.849,2.741-2.177-.036-1.283-1.051-2.071-2.708-2.072Q208.887,278.98,201.8,278.986Zm-35.144,21.259q6.693,0,13.386,0c1.542,0,2.54-.823,2.578-2.071.039-1.29-1-2.175-2.6-2.176q-13.254-.009-26.508,0c-1.669,0-2.633.8-2.624,2.136s.972,2.109,2.65,2.112Q160.092,300.253,166.653,300.246Zm-.963-21.259c-4.109,0-8.217-.009-12.326,0-1.549,0-2.5.846-2.483,2.142s.959,2.1,2.526,2.1q12.26.012,24.519,0c1.537,0,2.537-.831,2.569-2.079.033-1.291-1-2.164-2.612-2.167Q171.787,278.976,165.69,278.986Zm-.016,29.763q6.031,0,12.061,0c1.734,0,2.781-.827,2.761-2.155-.02-1.284-1.041-2.094-2.686-2.094q-12.127-.007-24.254,0c-.133,0-.265,0-.4,0a2.147,2.147,0,0,0-2.277,2.086,2.122,2.122,0,0,0,2.334,2.157C157.368,308.762,161.521,308.748,165.673,308.749ZM165.59,313c-4.065,0-8.129-.007-12.193,0-1.509,0-2.425.744-2.513,1.977-.1,1.371.921,2.267,2.623,2.269q12.127.009,24.254,0c1.719,0,2.775-.853,2.735-2.18-.039-1.283-1.053-2.066-2.712-2.068Q171.687,312.994,165.59,313Zm-6.228-25.511c-1.987,0-3.975-.01-5.962,0-1.562.011-2.508.816-2.518,2.107s.936,2.132,2.488,2.138q5.963.02,11.925,0a2.144,2.144,0,1,0,.029-4.242C163.337,287.476,161.349,287.49,159.362,287.49Z" transform="translate(-7.923 -7.746)" fill="#ffe3bf"/>
    <path id="Trazado_195216" data-name="Trazado 195216" d="M225.7,284.037c-1.717-.458-2.125-.985-2.126-2.808q0-16.98,0-33.96V245.73h-1.547q-10.525,0-21.051,0c-2.175,0-2.859-.678-2.862-2.832q-.006-5.771,0-11.541c0-1.686.45-2.231,2.124-2.674,1.674.461,2.1,1,2.116,2.694.008,1.062,0,2.125,0,3.188v6.845H220.67c-.619-.509-.974-.755-1.275-1.056q-5.579-5.587-11.146-11.186c-2.655-2.656-5.329-5.293-7.994-7.938a1.938,1.938,0,0,0-1.82-1.029q-33.74.037-67.481.021c-.176,0-.351.017-.63.032V339.168h48.438c.182-.353-.211-.576-.363-.84a10.908,10.908,0,0,1-1.5-5.565c0-11.247-.016-22.494.009-33.74a10.573,10.573,0,0,1,10.752-10.769c12.153-.024,24.306-.007,36.458-.009.529,0,1.059-.027,1.588-.042q8.219.022,16.438.043c6.631.014,11.135,4.522,11.138,11.175q.008,16.472,0,32.945c0,6.636-4.523,11.152-11.161,11.153q-56.613,0-113.227,0c-2.278,0-2.915-.634-2.915-2.9q0-60.908,0-121.817c0-2.18.658-2.834,2.847-2.834q35.466,0,70.932-.018a3.156,3.156,0,0,1,2.436,1.038q12.386,12.479,24.825,24.907a2.5,2.5,0,0,1,.81,1.873q-.015,18.93-.013,37.86C227.812,283.071,227.278,283.637,225.7,284.037ZM185.36,338.815a4.726,4.726,0,0,0,2.431.454q27.286,0,54.571,0a6.351,6.351,0,0,0,6.671-6.66q.018-16.722,0-33.444a4.717,4.717,0,0,0-.454-2.435,6.1,6.1,0,0,0-5.944-4.22q-27.515-.019-55.029,0a6.324,6.324,0,0,0-6.464,6.47c-.022,2.258,0,4.517,0,6.776q0,13.486,0,26.971A6.15,6.15,0,0,0,185.36,338.815Z" fill="#364952"/>
    <path id="Trazado_195217" data-name="Trazado 195217" d="M195.093,272.494c2.1,0,4.038-.01,5.972,0,1.751.012,2.5.754,2.511,2.5q.02,3.852,0,7.7c-.008,1.817-.75,2.539-2.6,2.548-1.894.009-3.788,0-5.886,0,0,1.982,0,3.867,0,5.752,0,2.081-.683,2.748-2.8,2.751-2.475,0-4.949.011-7.424,0-1.748-.009-2.495-.757-2.507-2.5-.014-1.938,0-3.877,0-6-2.007,0-3.891,0-5.775,0-2.018-.006-2.707-.691-2.711-2.7q-.009-3.719,0-7.438c.007-1.905.725-2.607,2.665-2.613,1.888-.006,3.776,0,5.82,0,0-2.038,0-3.928,0-5.818.006-2,.7-2.68,2.728-2.684,2.519,0,5.038-.013,7.556,0a2.131,2.131,0,0,1,2.441,2.435C195.107,268.374,195.093,270.319,195.093,272.494Zm4.179,4.252h-3.83c-4.583,0-4.593-.01-4.593-4.54v-3.874h-4.243c0,1.938,0,3.787,0,5.636-.006,2.089-.689,2.771-2.777,2.777-1.878,0-3.756,0-5.631,0V281h4.016c4.307,0,4.393.085,4.393,4.342v4.048h4.243c0-2.013-.009-3.913,0-5.813.011-1.83.745-2.564,2.575-2.574,1.928-.011,3.856,0,5.845,0Z" transform="translate(-30.926 -31.015)" fill="#eb736e"/>
    <path id="Trazado_195218" data-name="Trazado 195218" d="M257.154,395.975H277.3a7.662,7.662,0,0,1,1.191.026,2.088,2.088,0,0,1,1.9,2.053,2.132,2.132,0,0,1-1.939,2.152,7.551,7.551,0,0,1-.927.02H236.7a5.276,5.276,0,0,1-1.057-.032,2.116,2.116,0,0,1,.039-4.192,6.7,6.7,0,0,1,1.191-.026Z" transform="translate(-69.642 -116.231)" fill="#364952"/>
    <path id="Trazado_195219" data-name="Trazado 195219" d="M335.593,230.85c2.666,2.645,5.34,5.282,7.994,7.938q5.582,5.584,11.146,11.186c.3.3.657.547,1.275,1.056H337.7v-6.845c0-1.063.007-2.126,0-3.188-.013-1.694-.441-2.233-2.116-2.694Q335.586,234.576,335.593,230.85Z" transform="translate(-135.339 -9.621)" fill="#fff"/>
    <path id="Trazado_195220" data-name="Trazado 195220" d="M286.64,371.983q7.091,0,14.182,0c1.657,0,2.672.789,2.708,2.072.037,1.327-1.018,2.176-2.741,2.177q-14.248.005-28.5,0c-1.842,0-3-1.2-2.549-2.663a2.233,2.233,0,0,1,2.449-1.6C277.009,372,281.825,371.984,286.64,371.983Z" transform="translate(-92.767 -100.743)" fill="#364952"/>
    <path id="Trazado_195221" data-name="Trazado 195221" d="M189.676,424.249q-6.561,0-13.122,0c-1.678,0-2.641-.782-2.65-2.112S174.86,420,176.529,420q13.254-.007,26.508,0c1.606,0,2.643.886,2.6,2.176-.038,1.248-1.036,2.067-2.578,2.071Q196.369,424.259,189.676,424.249Z" transform="translate(-30.947 -131.749)" fill="#364952"/>
    <path id="Trazado_195222" data-name="Trazado 195222" d="M188.713,371.995q6.1,0,12.193,0c1.611,0,2.646.877,2.612,2.167-.032,1.248-1.032,2.078-2.569,2.079q-12.259.01-24.519,0c-1.566,0-2.512-.812-2.526-2.1s.934-2.138,2.483-2.142C180.5,371.986,184.6,371.995,188.713,371.995Z" transform="translate(-30.947 -100.754)" fill="#364952"/>
    <path id="Trazado_195223" data-name="Trazado 195223" d="M188.7,448.248c-4.153,0-8.305.013-12.458-.008a2.122,2.122,0,0,1-2.334-2.157A2.147,2.147,0,0,1,176.181,444c.132-.006.265,0,.4,0q12.127,0,24.254,0c1.644,0,2.666.81,2.686,2.094.02,1.327-1.027,2.152-2.761,2.155Q194.727,448.254,188.7,448.248Z" transform="translate(-30.947 -147.245)" fill="#364952"/>
    <path id="Trazado_195224" data-name="Trazado 195224" d="M188.608,468q6.1,0,12.193,0c1.659,0,2.674.786,2.712,2.068.04,1.327-1.016,2.18-2.735,2.18q-12.127.006-24.254,0c-1.7,0-2.72-.9-2.623-2.269.088-1.233,1-1.974,2.513-1.977C180.479,467.989,184.543,468,188.608,468Z" transform="translate(-30.941 -162.741)" fill="#364952"/>
    <path id="Trazado_195225" data-name="Trazado 195225" d="M182.385,395.991c1.987,0,3.975-.014,5.962,0a2.144,2.144,0,1,1-.029,4.242q-5.963.022-11.925,0c-1.552-.005-2.5-.842-2.488-2.138s.956-2.1,2.518-2.107C178.41,395.98,180.4,395.991,182.385,395.991Z" transform="translate(-30.947 -116.246)" fill="#364952"/>
    <path id="Trazado_195226" data-name="Trazado 195226" d="M356.8,443.931a4.717,4.717,0,0,1,.454,2.435q0,16.722,0,33.444a6.351,6.351,0,0,1-6.671,6.66q-27.286.012-54.571,0a4.725,4.725,0,0,1-2.431-.454c.009-3.841.064-7.683.013-11.523a30.737,30.737,0,0,1,3.86-15.422c.265-.485.773-.885.655-1.54a6.645,6.645,0,0,0,5.495,1.151,6.462,6.462,0,0,0,3.557-10.219,1.745,1.745,0,0,0,1.084-.387,30.166,30.166,0,0,1,15.2-4.128Q340.125,443.958,356.8,443.931Zm-33.51,14.906a6.378,6.378,0,1,0-6.349-6.361A6.283,6.283,0,0,0,323.292,458.837Zm21.243,0a6.378,6.378,0,1,0-6.375-6.335A6.286,6.286,0,0,0,344.535,458.837Zm-48.81,14.857a6.365,6.365,0,1,0,6.354-6.353A6.283,6.283,0,0,0,295.726,473.693Zm21.217.015a6.365,6.365,0,1,0,6.339-6.368A6.283,6.283,0,0,0,316.943,473.709Zm27.588,6.387a6.378,6.378,0,1,0-6.371-6.339A6.287,6.287,0,0,0,344.531,480.1Z" transform="translate(-108.219 -147.204)" fill="#e7ebed"/>
    <path id="Trazado_195227" data-name="Trazado 195227" d="M290.408,449.826c.118.655-.39,1.055-.655,1.54a30.737,30.737,0,0,0-3.86,15.422c.051,3.84,0,7.682-.013,11.523a6.15,6.15,0,0,1-4.214-6.091q-.019-13.486,0-26.971c0-2.258-.017-4.518,0-6.776a6.324,6.324,0,0,1,6.464-6.47q27.515-.023,55.029,0a6.1,6.1,0,0,1,5.944,4.22q-16.677.012-33.354.021a30.166,30.166,0,0,0-15.2,4.128,1.744,1.744,0,0,1-1.084.387,6.369,6.369,0,0,0-6.516-2.242,6.043,6.043,0,0,0-4.734,4.654A6.4,6.4,0,0,0,290.408,449.826Z" transform="translate(-100.52 -139.495)" fill="#fff"/>
    <path id="Trazado_195228" data-name="Trazado 195228" d="M207.155,284.667v4.251c-1.989,0-3.917-.009-5.845,0-1.83.011-2.564.745-2.575,2.574-.011,1.9,0,3.8,0,5.813H194.49V293.26c0-4.257-.086-4.342-4.393-4.342h-4.016v-4.251c1.875,0,3.753,0,5.631,0,2.088-.005,2.771-.688,2.777-2.777,0-1.849,0-3.7,0-5.636h4.243v3.874c0,4.53.01,4.54,4.593,4.54Z" transform="translate(-38.809 -38.937)" fill="#fff"/>
    <path id="Trazado_195229" data-name="Trazado 195229" d="M301.952,461.373a6.4,6.4,0,0,1-2.2-6.655,6.043,6.043,0,0,1,4.734-4.654A6.369,6.369,0,0,1,311,452.305a6.462,6.462,0,0,1-3.557,10.219A6.645,6.645,0,0,1,301.952,461.373Zm1.882-5.222a2.1,2.1,0,0,0,4.19.355,2.1,2.1,0,1,0-4.19-.355Z" transform="translate(-112.063 -151.042)" fill="#364952"/>
    <path id="Trazado_195230" data-name="Trazado 195230" d="M365.87,462.755a6.378,6.378,0,1,1,6.381-6.331A6.283,6.283,0,0,1,365.87,462.755Zm-.043-8.492a2.114,2.114,0,1,0,2.166,2.088A2.32,2.32,0,0,0,365.827,454.263Z" transform="translate(-150.797 -151.123)" fill="#364952"/>
    <path id="Trazado_195231" data-name="Trazado 195231" d="M425.779,462.755a6.378,6.378,0,1,1,6.355-6.357A6.282,6.282,0,0,1,425.779,462.755Zm2.09-6.234a2.1,2.1,0,0,0-4.19-.354,2.1,2.1,0,1,0,4.19.354Z" transform="translate(-189.463 -151.123)" fill="#364952"/>
    <path id="Trazado_195232" data-name="Trazado 195232" d="M299.638,516.353a6.365,6.365,0,1,1,6.308,6.4A6.276,6.276,0,0,1,299.638,516.353Zm6.558-2.075a2.1,2.1,0,1,0,1.894,2.324A2.27,2.27,0,0,0,306.2,514.279Z" transform="translate(-112.131 -189.864)" fill="#364952"/>
    <path id="Trazado_195233" data-name="Trazado 195233" d="M359.521,516.368a6.365,6.365,0,1,1,6.323,6.387A6.276,6.276,0,0,1,359.521,516.368Zm6.421,2.122a2.114,2.114,0,1,0-2.164-2.09A2.32,2.32,0,0,0,365.942,518.49Z" transform="translate(-150.797 -189.864)" fill="#364952"/>
    <path id="Trazado_195234" data-name="Trazado 195234" d="M425.775,522.755a6.378,6.378,0,1,1,6.359-6.353A6.282,6.282,0,0,1,425.775,522.755Zm.171-8.479a2.106,2.106,0,0,0-.42,4.19,2.106,2.106,0,1,0,.42-4.19Z" transform="translate(-189.463 -189.864)" fill="#364952"/>
    <path id="Trazado_195235" data-name="Trazado 195235" d="M311.661,464.006a2.1,2.1,0,1,1,4.19.355,2.1,2.1,0,0,1-4.19-.355Z" transform="translate(-119.89 -158.897)" fill="#ed9998"/>
    <path id="Trazado_195236" data-name="Trazado 195236" d="M373.58,462.03a2.114,2.114,0,1,1-2.049,2.205A2.312,2.312,0,0,1,373.58,462.03Z" transform="translate(-158.55 -158.89)" fill="#ed9998"/>
    <path id="Trazado_195237" data-name="Trazado 195237" d="M435.634,464.286a2.1,2.1,0,1,1-4.19-.354,2.1,2.1,0,0,1,4.19.354Z" transform="translate(-197.228 -158.888)" fill="#ed9998"/>
    <path id="Trazado_195238" data-name="Trazado 195238" d="M313.956,522.054a2.1,2.1,0,1,1-2.291,1.937A2.26,2.26,0,0,1,313.956,522.054Z" transform="translate(-119.892 -197.64)" fill="#ed9998"/>
    <path id="Trazado_195239" data-name="Trazado 195239" d="M373.7,526.259a2.114,2.114,0,1,1,2.051-2.2A2.308,2.308,0,0,1,373.7,526.259Z" transform="translate(-158.554 -197.633)" fill="#ed9998"/>
    <path id="Trazado_195240" data-name="Trazado 195240" d="M433.7,522.05a2.106,2.106,0,1,1-2.278,1.956A2.269,2.269,0,0,1,433.7,522.05Z" transform="translate(-197.221 -197.638)" fill="#ed9998"/>
  </g>
</svg>
