<svg id="Grupo_108300" data-name="Grupo 108300" xmlns="http://www.w3.org/2000/svg" xmlns:xlink="http://www.w3.org/1999/xlink" width="1320" height="537.672" viewBox="0 0 1320 537.672">
  <defs>
    <clipPath id="clip-path">
      <rect id="Rectángulo_40159" data-name="Rectángulo 40159" width="1320" height="537.672" rx="19.2" fill="none"/>
    </clipPath>
  </defs>
  <g id="Grupo_108299" data-name="Grupo 108299" clip-path="url(#clip-path)">
    <rect id="Rectángulo_40152" data-name="Rectángulo 40152" width="1450.151" height="642.22" rx="19.2" transform="translate(-86.056 -54.763)" fill="#f3f4f4"/>
    <path id="Trazado_113525" data-name="Trazado 113525" d="M1045.6,683.5s35.738-94.413,130.684-211.228-33.6-118.416-33.6-118.416-28.8-29.337-5.868-103.481c0,0,27.737-87.478,122.683-103.481,0,0,88.545-20.269,163.222,55.474,0,0,97.08,103.481,133.351,101.88V687.765Z" transform="translate(-232.513 -137.647)" fill="#d9eef2"/>
    <path id="Trazado_113526" data-name="Trazado 113526" d="M371.611,129.6s-6.4,45.517-102.769,91.746-84.278,128.016-84.278,128.016,5.334,60.1-57.963,76.1V131.734Z" transform="translate(-130.512 -136.001)" fill="#d9eef2"/>
    <rect id="Rectángulo_40153" data-name="Rectángulo 40153" width="113.882" height="2.134" transform="matrix(0.693, -0.721, 0.721, 0.693, 1237.92, 27.22)" fill="#fff" opacity="0.65"/>
    <rect id="Rectángulo_40154" data-name="Rectángulo 40154" width="113.882" height="2.134" transform="matrix(0.693, -0.721, 0.721, 0.693, 1248.588, 41.889)" fill="#fff" opacity="0.65"/>
    <rect id="Rectángulo_40155" data-name="Rectángulo 40155" width="113.882" height="2.134" transform="matrix(0.693, -0.721, 0.721, 0.693, 1260.056, 57.891)" fill="#fff" opacity="0.65"/>
    <rect id="Rectángulo_40156" data-name="Rectángulo 40156" width="113.882" height="2.134" transform="matrix(0.693, -0.721, 0.721, 0.693, 1273.258, 72.426)" fill="#fff" opacity="0.65"/>
    <rect id="Rectángulo_40157" data-name="Rectángulo 40157" width="113.882" height="2.134" transform="matrix(0.693, -0.721, 0.721, 0.693, 1289.26, 84.962)" fill="#fff" opacity="0.65"/>
    <rect id="Rectángulo_40158" data-name="Rectángulo 40158" width="113.882" height="2.134" transform="matrix(0.693, -0.721, 0.721, 0.693, 1307.396, 96.963)" fill="#fff" opacity="0.65"/>
  </g>
</svg>
