<svg xmlns="http://www.w3.org/2000/svg" xmlns:xlink="http://www.w3.org/1999/xlink" width="750.272" height="468.525" viewBox="0 0 750.272 468.525">
  <defs>
    <clipPath id="clip-path">
      <rect id="Rectángulo_41651" data-name="Rectángulo 41651" width="750.272" height="468.525" fill="none"/>
    </clipPath>
  </defs>
  <g id="Grupo_135975" data-name="Grupo 135975" transform="translate(-425 -11697)">
    <g id="Grupo_135945" data-name="Grupo 135945" transform="translate(425 11697)">
      <g id="Grupo_135944" data-name="Grupo 135944" clip-path="url(#clip-path)">
        <text id="Empaque_No.___________________________" data-name="Empaque No. __________________________" transform="translate(0.375 10.296)" fill="#1a1818" font-size="12" font-family="ArialNarrow-Bold, Arial" font-weight="700"><tspan x="0" y="0">Empaque No. __________________________</tspan></text>
      </g>
    </g>
    <path id="Trazado_197443" data-name="Trazado 197443" d="M.605,0V-7.158H4.629v1.211H1.787v1.694H4.248v1.211H1.787V0Zm5,0V-7.158H9.966v1.211H6.792V-4.36H9.741v1.206H6.792v1.943h3.281V0Zm9.224-2.632,1.147.444a3.217,3.217,0,0,1-.894,1.755A2.235,2.235,0,0,1,13.55.122a2.277,2.277,0,0,1-1.86-.884,4.271,4.271,0,0,1-.82-2.754A4.48,4.48,0,0,1,11.7-6.382a2.344,2.344,0,0,1,1.931-.9,2.227,2.227,0,0,1,1.652.674,2.923,2.923,0,0,1,.694,1.421L14.8-4.844a1.584,1.584,0,0,0-.448-.891,1.125,1.125,0,0,0-.79-.31,1.258,1.258,0,0,0-1.062.566,3.261,3.261,0,0,0-.411,1.87,3.47,3.47,0,0,0,.4,1.924,1.219,1.219,0,0,0,1.04.571,1.076,1.076,0,0,0,.811-.364A2.306,2.306,0,0,0,14.834-2.632ZM17,0V-7.158h1.182v2.817h2.329V-7.158h1.182V0H20.508V-3.13H18.179V0ZM28.208,0H26.923l-.514-1.621H24.06L23.574,0h-1.26L24.6-7.158h1.255Zm-2.18-2.832-.81-2.656-.8,2.656Z" transform="translate(437.521 11748.826)" fill="#1a1818"/>
    <path id="Trazado_197444" data-name="Trazado 197444" d="M.591-7.158H2.752a3.214,3.214,0,0,1,1.237.183,2.072,2.072,0,0,1,.768.618,3.176,3.176,0,0,1,.551,1.128,6.318,6.318,0,0,1,.2,1.724A5.543,5.543,0,0,1,5.3-1.892,3.237,3.237,0,0,1,4.766-.806a2.061,2.061,0,0,1-.778.6A2.909,2.909,0,0,1,2.815,0H.591ZM1.772-5.947v4.736h.889a2.314,2.314,0,0,0,.828-.107,1,1,0,0,0,.42-.324,1.858,1.858,0,0,0,.271-.685,5.716,5.716,0,0,0,.107-1.234,5.626,5.626,0,0,0-.11-1.254,1.66,1.66,0,0,0-.342-.722,1.088,1.088,0,0,0-.564-.346,4.688,4.688,0,0,0-.962-.063ZM6.509-7.158H8.67a3.214,3.214,0,0,1,1.237.183,2.072,2.072,0,0,1,.768.618,3.176,3.176,0,0,1,.551,1.128,6.318,6.318,0,0,1,.2,1.724,5.543,5.543,0,0,1-.21,1.614,3.237,3.237,0,0,1-.532,1.086,2.061,2.061,0,0,1-.778.6A2.909,2.909,0,0,1,8.733,0H6.509ZM7.69-5.947v4.736h.889a2.314,2.314,0,0,0,.828-.107,1,1,0,0,0,.42-.324,1.858,1.858,0,0,0,.271-.685,5.716,5.716,0,0,0,.107-1.234,5.626,5.626,0,0,0-.11-1.254,1.66,1.66,0,0,0-.342-.722,1.088,1.088,0,0,0-.564-.346,4.688,4.688,0,0,0-.962-.063ZM11.826.122l1.455-7.4h.845l-1.47,7.4ZM14.7,0V-7.158h1.772l1.067,4.888L18.6-7.158h1.781V0h-1.1V-5.64L18.1,0h-1.14L15.8-5.64V0Zm6.831,0V-7.158H23.3l1.067,4.888,1.059-4.888h1.781V0H26.1V-5.64L24.933,0h-1.14L22.632-5.64V0Zm6.24.122,1.455-7.4h.845L28.6.122ZM35.952,0H34.667l-.514-1.621H31.8L31.318,0h-1.26l2.286-7.158H33.6Zm-2.18-2.832-.81-2.656-.8,2.656ZM41.87,0H40.585l-.514-1.621h-2.35L37.236,0h-1.26l2.286-7.158h1.255ZM39.69-2.832l-.81-2.656-.8,2.656Z" transform="translate(437.521 11760.826)" fill="#1a1818"/>
    <path id="Trazado_197445" data-name="Trazado 197445" d="M.6,0V-7.158H1.782v2.817H4.111V-7.158H5.293V0H4.111V-3.13H1.782V0ZM6.274-3.535a5.084,5.084,0,0,1,.378-2.107,2.852,2.852,0,0,1,.989-1.233A2.614,2.614,0,0,1,9.121-7.28a2.538,2.538,0,0,1,2.053.962,4.2,4.2,0,0,1,.793,2.739,4.268,4.268,0,0,1-.84,2.808,2.458,2.458,0,0,1-2,.894A2.481,2.481,0,0,1,7.114-.762,4.211,4.211,0,0,1,6.274-3.535ZM7.5-3.584a3.041,3.041,0,0,0,.469,1.853,1.413,1.413,0,0,0,1.164.618,1.4,1.4,0,0,0,1.159-.613,3.137,3.137,0,0,0,.46-1.882A3.068,3.068,0,0,0,10.3-5.449a1.4,1.4,0,0,0-1.171-.6,1.413,1.413,0,0,0-1.179.6A3.084,3.084,0,0,0,7.5-3.584ZM12.9,0V-7.158h2.5a3.477,3.477,0,0,1,1.367.193,1.516,1.516,0,0,1,.674.669,2.319,2.319,0,0,1,.264,1.14A2.127,2.127,0,0,1,17.3-3.8a1.792,1.792,0,0,1-1.145.645,2.961,2.961,0,0,1,.63.6A8.46,8.46,0,0,1,17.461-1.4L18.174,0H16.76L15.9-1.558a10.227,10.227,0,0,0-.629-1.057.929.929,0,0,0-.352-.293,1.607,1.607,0,0,0-.6-.081h-.244V0Zm1.182-4.131h.879A4.4,4.4,0,0,0,15.986-4.2a.655.655,0,0,0,.356-.286,1.052,1.052,0,0,0,.137-.571.984.984,0,0,0-.137-.549.7.7,0,0,0-.371-.286,4.691,4.691,0,0,0-.962-.054h-.928ZM24.111,0H22.827l-.514-1.621h-2.35L19.478,0h-1.26L20.5-7.158h1.255Zm-2.18-2.832-.81-2.656-.8,2.656Z" transform="translate(506.801 11754.826)" fill="#1a1818"/>
    <path id="Trazado_197446" data-name="Trazado 197446" d="M.61,0V-7.158H1.763l2.4,4.78v-4.78h1.1V0H4.077L1.714-4.668V0ZM6.274-3.535a5.084,5.084,0,0,1,.378-2.107,2.852,2.852,0,0,1,.989-1.233A2.614,2.614,0,0,1,9.121-7.28a2.538,2.538,0,0,1,2.053.962,4.2,4.2,0,0,1,.793,2.739,4.268,4.268,0,0,1-.84,2.808,2.458,2.458,0,0,1-2,.894A2.481,2.481,0,0,1,7.114-.762,4.211,4.211,0,0,1,6.274-3.535ZM7.5-3.584a3.041,3.041,0,0,0,.469,1.853,1.413,1.413,0,0,0,1.164.618,1.4,1.4,0,0,0,1.159-.613,3.137,3.137,0,0,0,.46-1.882A3.068,3.068,0,0,0,10.3-5.449a1.4,1.4,0,0,0-1.171-.6,1.413,1.413,0,0,0-1.179.6A3.084,3.084,0,0,0,7.5-3.584ZM12.881,0V-7.158h1.772L15.72-2.271l1.059-4.888H18.56V0h-1.1V-5.64L16.286,0h-1.14L13.984-5.64V0Zm6.846-7.158h2.351a3.643,3.643,0,0,1,1.354.176,1.5,1.5,0,0,1,.66.62,1.9,1.9,0,0,1,.269,1.006,1.9,1.9,0,0,1-.23.935,1.51,1.51,0,0,1-.6.618,1.584,1.584,0,0,1,.817.635,1.949,1.949,0,0,1,.3,1.094,2.253,2.253,0,0,1-.376,1.321,1.543,1.543,0,0,1-.889.667A9.2,9.2,0,0,1,21.724,0h-2Zm1.182,1.191v1.655h.781a8.669,8.669,0,0,0,.869-.024.741.741,0,0,0,.474-.256.861.861,0,0,0,.171-.564.876.876,0,0,0-.139-.515.581.581,0,0,0-.337-.247,7.183,7.183,0,0,0-1.135-.049Zm0,2.847v1.909h1.1a3.449,3.449,0,0,0,.93-.075.691.691,0,0,0,.345-.3,1.039,1.039,0,0,0,.139-.563,1.029,1.029,0,0,0-.149-.577.762.762,0,0,0-.4-.312,3.773,3.773,0,0,0-1.01-.085ZM25.649,0V-7.158h2.5a3.477,3.477,0,0,1,1.367.193,1.516,1.516,0,0,1,.674.669,2.319,2.319,0,0,1,.264,1.14,2.127,2.127,0,0,1-.4,1.353,1.792,1.792,0,0,1-1.145.645,2.961,2.961,0,0,1,.63.6A8.46,8.46,0,0,1,30.21-1.4L30.923,0H29.509l-.858-1.558a10.227,10.227,0,0,0-.629-1.057.929.929,0,0,0-.352-.293,1.607,1.607,0,0,0-.6-.081h-.244V0Zm1.182-4.131h.879A4.4,4.4,0,0,0,28.735-4.2a.655.655,0,0,0,.356-.286,1.052,1.052,0,0,0,.137-.571.984.984,0,0,0-.137-.549.7.7,0,0,0-.371-.286,4.691,4.691,0,0,0-.962-.054h-.928ZM31.567,0V-7.158h4.355v1.211H32.749V-4.36H35.7v1.206H32.749v1.943H36.03V0Zm11.5-2.632,1.147.444a3.217,3.217,0,0,1-.894,1.755,2.235,2.235,0,0,1-1.538.554,2.277,2.277,0,0,1-1.86-.884,4.271,4.271,0,0,1-.82-2.754,4.48,4.48,0,0,1,.826-2.866,2.344,2.344,0,0,1,1.931-.9,2.227,2.227,0,0,1,1.652.674,2.923,2.923,0,0,1,.694,1.421l-1.172.342a1.584,1.584,0,0,0-.448-.891,1.125,1.125,0,0,0-.79-.31,1.258,1.258,0,0,0-1.062.566,3.261,3.261,0,0,0-.411,1.87,3.47,3.47,0,0,0,.4,1.924,1.219,1.219,0,0,0,1.04.571,1.076,1.076,0,0,0,.811-.364A2.306,2.306,0,0,0,43.071-2.632Zm1.919-.9a5.084,5.084,0,0,1,.378-2.107,2.852,2.852,0,0,1,.989-1.233,2.614,2.614,0,0,1,1.479-.405,2.538,2.538,0,0,1,2.053.962,4.2,4.2,0,0,1,.793,2.739,4.268,4.268,0,0,1-.84,2.808,2.458,2.458,0,0,1-2,.894A2.481,2.481,0,0,1,45.83-.762,4.211,4.211,0,0,1,44.99-3.535Zm1.221-.049a3.041,3.041,0,0,0,.469,1.853,1.413,1.413,0,0,0,1.164.618A1.4,1.4,0,0,0,49-1.726a3.137,3.137,0,0,0,.46-1.882,3.068,3.068,0,0,0-.447-1.841,1.4,1.4,0,0,0-1.171-.6,1.413,1.413,0,0,0-1.179.6A3.084,3.084,0,0,0,46.211-3.584ZM51.6,0V-7.158h1.772l1.067,4.888,1.059-4.888h1.781V0h-1.1V-5.64L55,0h-1.14L52.7-5.64V0Zm6.851,0V-7.158H62.8v1.211H59.629V-4.36h2.949v1.206H59.629v1.943H62.91V0Zm5.469,0V-7.158h2.5a3.477,3.477,0,0,1,1.367.193,1.516,1.516,0,0,1,.674.669,2.319,2.319,0,0,1,.264,1.14,2.127,2.127,0,0,1-.4,1.353,1.792,1.792,0,0,1-1.145.645,2.961,2.961,0,0,1,.63.6A8.461,8.461,0,0,1,68.477-1.4L69.189,0H67.776l-.858-1.558a10.226,10.226,0,0,0-.629-1.057.929.929,0,0,0-.352-.293,1.607,1.607,0,0,0-.6-.081H65.1V0ZM65.1-4.131h.879A4.4,4.4,0,0,0,67-4.2a.655.655,0,0,0,.356-.286,1.052,1.052,0,0,0,.137-.571.984.984,0,0,0-.137-.549.7.7,0,0,0-.371-.286,4.691,4.691,0,0,0-.962-.054H65.1Zm8.491,1.5,1.147.444a3.217,3.217,0,0,1-.894,1.755A2.235,2.235,0,0,1,72.3.122a2.277,2.277,0,0,1-1.86-.884,4.271,4.271,0,0,1-.82-2.754,4.48,4.48,0,0,1,.826-2.866,2.344,2.344,0,0,1,1.931-.9,2.227,2.227,0,0,1,1.652.674,2.923,2.923,0,0,1,.694,1.421l-1.172.342a1.584,1.584,0,0,0-.448-.891,1.125,1.125,0,0,0-.79-.31,1.258,1.258,0,0,0-1.062.566,3.261,3.261,0,0,0-.411,1.87,3.47,3.47,0,0,0,.4,1.924,1.219,1.219,0,0,0,1.04.571,1.076,1.076,0,0,0,.811-.364A2.306,2.306,0,0,0,73.589-2.632ZM75.713,0V-7.158h1.182V0Zm7.612,0H82.04l-.514-1.621h-2.35L78.691,0h-1.26l2.286-7.158h1.255Zm-2.18-2.832-.81-2.656-.8,2.656ZM83.979,0V-7.1h1.182v5.889H88.11V0Z" transform="translate(563.082 11748.826)" fill="#1a1818"/>
    <path id="Trazado_197447" data-name="Trazado 197447" d="M.591-7.158H2.752a3.214,3.214,0,0,1,1.237.183,2.072,2.072,0,0,1,.768.618,3.176,3.176,0,0,1,.551,1.128,6.318,6.318,0,0,1,.2,1.724A5.543,5.543,0,0,1,5.3-1.892,3.237,3.237,0,0,1,4.766-.806a2.061,2.061,0,0,1-.778.6A2.909,2.909,0,0,1,2.815,0H.591ZM1.772-5.947v4.736h.889a2.314,2.314,0,0,0,.828-.107,1,1,0,0,0,.42-.324,1.858,1.858,0,0,0,.271-.685,5.716,5.716,0,0,0,.107-1.234,5.626,5.626,0,0,0-.11-1.254,1.66,1.66,0,0,0-.342-.722,1.088,1.088,0,0,0-.564-.346,4.688,4.688,0,0,0-.962-.063ZM6.519,0V-7.158h4.355v1.211H7.7V-4.36h2.949v1.206H7.7v1.943h3.281V0Zm5.5,0V-7.1H13.2v5.889h2.949V0Zm7.1,0V-7.158H20.89l1.067,4.888,1.059-4.888H24.8V0h-1.1V-5.64L22.523,0h-1.14L20.221-5.64V0Zm6.851,0V-7.158h4.355v1.211H27.15V-4.36H30.1v1.206H27.15v1.943h3.281V0Zm5.459-7.158h2.161a3.214,3.214,0,0,1,1.237.183,2.072,2.072,0,0,1,.768.618,3.176,3.176,0,0,1,.551,1.128,6.318,6.318,0,0,1,.2,1.724,5.543,5.543,0,0,1-.21,1.614A3.237,3.237,0,0,1,35.6-.806a2.061,2.061,0,0,1-.778.6,2.909,2.909,0,0,1-1.173.2H31.427Zm1.182,1.211v4.736H33.5a2.314,2.314,0,0,0,.828-.107,1,1,0,0,0,.42-.324,1.858,1.858,0,0,0,.271-.685,5.716,5.716,0,0,0,.107-1.234,5.626,5.626,0,0,0-.11-1.254,1.66,1.66,0,0,0-.342-.722,1.088,1.088,0,0,0-.564-.346,4.688,4.688,0,0,0-.962-.063ZM37.316,0V-7.158H38.5V0ZM43.39-2.632l1.147.444a3.217,3.217,0,0,1-.894,1.755,2.235,2.235,0,0,1-1.538.554,2.277,2.277,0,0,1-1.86-.884,4.271,4.271,0,0,1-.82-2.754,4.48,4.48,0,0,1,.826-2.866,2.344,2.344,0,0,1,1.931-.9,2.227,2.227,0,0,1,1.652.674,2.923,2.923,0,0,1,.694,1.421l-1.172.342a1.584,1.584,0,0,0-.448-.891,1.125,1.125,0,0,0-.79-.31,1.258,1.258,0,0,0-1.062.566,3.261,3.261,0,0,0-.411,1.87,3.47,3.47,0,0,0,.4,1.924,1.219,1.219,0,0,0,1.04.571,1.076,1.076,0,0,0,.811-.364A2.306,2.306,0,0,0,43.39-2.632ZM50.846,0H49.562l-.514-1.621H46.7L46.213,0h-1.26l2.286-7.158h1.255Zm-2.18-2.832-.81-2.656-.8,2.656ZM51.452,0V-7.158h1.772l1.067,4.888L55.35-7.158h1.781V0h-1.1V-5.64L54.857,0h-1.14L52.555-5.64V0ZM58.3,0V-7.158h4.355v1.211H59.484V-4.36h2.949v1.206H59.484v1.943h3.281V0Zm5.479,0V-7.158h1.152l2.4,4.78v-4.78h1.1V0H67.248L64.884-4.668V0Zm7.227,0V-5.947H69.264V-7.158h4.663v1.211H72.189V0Zm3.307-3.535a5.084,5.084,0,0,1,.378-2.107,2.852,2.852,0,0,1,.989-1.233,2.614,2.614,0,0,1,1.479-.405,2.538,2.538,0,0,1,2.053.962,4.2,4.2,0,0,1,.793,2.739,4.268,4.268,0,0,1-.84,2.808,2.458,2.458,0,0,1-2,.894,2.481,2.481,0,0,1-2.012-.884A4.211,4.211,0,0,1,74.315-3.535Zm1.221-.049A3.041,3.041,0,0,0,76-1.731a1.413,1.413,0,0,0,1.164.618,1.4,1.4,0,0,0,1.159-.613,3.137,3.137,0,0,0,.46-1.882,3.068,3.068,0,0,0-.447-1.841,1.4,1.4,0,0,0-1.171-.6,1.413,1.413,0,0,0-1.179.6A3.084,3.084,0,0,0,75.535-3.584Z" transform="translate(567.021 11760.826)" fill="#1a1818"/>
    <path id="Trazado_197448" data-name="Trazado 197448" d="M.61,0V-7.158H1.763l2.4,4.78v-4.78h1.1V0H4.077L1.714-4.668V0ZM6.274-3.535a5.084,5.084,0,0,1,.378-2.107,2.852,2.852,0,0,1,.989-1.233A2.614,2.614,0,0,1,9.121-7.28a2.538,2.538,0,0,1,2.053.962,4.2,4.2,0,0,1,.793,2.739,4.268,4.268,0,0,1-.84,2.808,2.458,2.458,0,0,1-2,.894A2.481,2.481,0,0,1,7.114-.762,4.211,4.211,0,0,1,6.274-3.535ZM7.5-3.584a3.041,3.041,0,0,0,.469,1.853,1.413,1.413,0,0,0,1.164.618,1.4,1.4,0,0,0,1.159-.613,3.137,3.137,0,0,0,.46-1.882A3.068,3.068,0,0,0,10.3-5.449a1.4,1.4,0,0,0-1.171-.6,1.413,1.413,0,0,0-1.179.6A3.084,3.084,0,0,0,7.5-3.584ZM12.881,0V-7.158h1.772L15.72-2.271l1.059-4.888H18.56V0h-1.1V-5.64L16.286,0h-1.14L13.984-5.64V0Zm6.846-7.158h2.351a3.643,3.643,0,0,1,1.354.176,1.5,1.5,0,0,1,.66.62,1.9,1.9,0,0,1,.269,1.006,1.9,1.9,0,0,1-.23.935,1.51,1.51,0,0,1-.6.618,1.584,1.584,0,0,1,.817.635,1.949,1.949,0,0,1,.3,1.094,2.253,2.253,0,0,1-.376,1.321,1.543,1.543,0,0,1-.889.667A9.2,9.2,0,0,1,21.724,0h-2Zm1.182,1.191v1.655h.781a8.669,8.669,0,0,0,.869-.024.741.741,0,0,0,.474-.256.861.861,0,0,0,.171-.564.876.876,0,0,0-.139-.515.581.581,0,0,0-.337-.247,7.183,7.183,0,0,0-1.135-.049Zm0,2.847v1.909h1.1a3.449,3.449,0,0,0,.93-.075.691.691,0,0,0,.345-.3,1.039,1.039,0,0,0,.139-.563,1.029,1.029,0,0,0-.149-.577.762.762,0,0,0-.4-.312,3.773,3.773,0,0,0-1.01-.085ZM25.649,0V-7.158h2.5a3.477,3.477,0,0,1,1.367.193,1.516,1.516,0,0,1,.674.669,2.319,2.319,0,0,1,.264,1.14,2.127,2.127,0,0,1-.4,1.353,1.792,1.792,0,0,1-1.145.645,2.961,2.961,0,0,1,.63.6A8.46,8.46,0,0,1,30.21-1.4L30.923,0H29.509l-.858-1.558a10.227,10.227,0,0,0-.629-1.057.929.929,0,0,0-.352-.293,1.607,1.607,0,0,0-.6-.081h-.244V0Zm1.182-4.131h.879A4.4,4.4,0,0,0,28.735-4.2a.655.655,0,0,0,.356-.286,1.052,1.052,0,0,0,.137-.571.984.984,0,0,0-.137-.549.7.7,0,0,0-.371-.286,4.691,4.691,0,0,0-.962-.054h-.928ZM31.567,0V-7.158h4.355v1.211H32.749V-4.36H35.7v1.206H32.749v1.943H36.03V0ZM42.046-2.627V-3.838H44.6V-.986a3.13,3.13,0,0,1-1.094.781,3.361,3.361,0,0,1-1.421.327,2.771,2.771,0,0,1-1.533-.427A2.9,2.9,0,0,1,39.5-1.584a4.8,4.8,0,0,1-.388-2A4.739,4.739,0,0,1,39.5-5.61a2.955,2.955,0,0,1,1.021-1.255,2.659,2.659,0,0,1,1.5-.415,2.518,2.518,0,0,1,1.682.535,2.544,2.544,0,0,1,.813,1.57l-1.172.269a1.519,1.519,0,0,0-.483-.845,1.27,1.27,0,0,0-.84-.293,1.493,1.493,0,0,0-1.226.588,2.853,2.853,0,0,0-.469,1.794,3.233,3.233,0,0,0,.508,1.968,1.392,1.392,0,0,0,1.177.581,1.8,1.8,0,0,0,.72-.163,2.25,2.25,0,0,0,.667-.445v-.905ZM45.7,0V-7.158h4.355v1.211H46.88V-4.36h2.949v1.206H46.88v1.943h3.281V0Zm5.479,0V-7.158h1.152l2.4,4.78v-4.78h1.1V0H54.644L52.28-4.668V0Zm5.908,0V-7.158H61.44v1.211H58.267V-4.36h2.949v1.206H58.267v1.943h3.281V0Zm1.509-7.637.553-1.46h1.268l-1.106,1.46ZM62.554,0V-7.158h2.5a3.477,3.477,0,0,1,1.367.193,1.516,1.516,0,0,1,.674.669,2.319,2.319,0,0,1,.264,1.14,2.127,2.127,0,0,1-.4,1.353,1.792,1.792,0,0,1-1.145.645,2.961,2.961,0,0,1,.63.6A8.461,8.461,0,0,1,67.114-1.4L67.827,0H66.413l-.858-1.558a10.226,10.226,0,0,0-.629-1.057.929.929,0,0,0-.352-.293,1.607,1.607,0,0,0-.6-.081h-.244V0Zm1.182-4.131h.879A4.4,4.4,0,0,0,65.64-4.2.655.655,0,0,0,66-4.487a1.052,1.052,0,0,0,.137-.571A.984.984,0,0,0,66-5.608a.7.7,0,0,0-.371-.286,4.691,4.691,0,0,0-.962-.054h-.928ZM68.433,0V-7.158h1.182V0Zm6.074-2.632,1.147.444a3.217,3.217,0,0,1-.894,1.755,2.235,2.235,0,0,1-1.538.554,2.277,2.277,0,0,1-1.86-.884,4.271,4.271,0,0,1-.82-2.754,4.48,4.48,0,0,1,.826-2.866,2.344,2.344,0,0,1,1.931-.9,2.227,2.227,0,0,1,1.652.674,2.923,2.923,0,0,1,.694,1.421l-1.172.342a1.584,1.584,0,0,0-.448-.891,1.125,1.125,0,0,0-.79-.31,1.258,1.258,0,0,0-1.062.566,3.261,3.261,0,0,0-.411,1.87,3.47,3.47,0,0,0,.4,1.924,1.219,1.219,0,0,0,1.04.571,1.076,1.076,0,0,0,.811-.364A2.306,2.306,0,0,0,74.507-2.632Zm1.919-.9A5.084,5.084,0,0,1,76.8-5.642a2.852,2.852,0,0,1,.989-1.233,2.614,2.614,0,0,1,1.479-.405,2.538,2.538,0,0,1,2.053.962,4.2,4.2,0,0,1,.793,2.739,4.268,4.268,0,0,1-.84,2.808,2.458,2.458,0,0,1-2,.894,2.481,2.481,0,0,1-2.012-.884A4.211,4.211,0,0,1,76.426-3.535Zm1.221-.049a3.041,3.041,0,0,0,.469,1.853,1.413,1.413,0,0,0,1.164.618,1.4,1.4,0,0,0,1.159-.613,3.137,3.137,0,0,0,.46-1.882,3.068,3.068,0,0,0-.447-1.841,1.4,1.4,0,0,0-1.171-.6,1.413,1.413,0,0,0-1.179.6A3.084,3.084,0,0,0,77.646-3.584Z" transform="translate(684.691 11755.086)" fill="#1a1818"/>
    <path id="Trazado_197449" data-name="Trazado 197449" d="M.63,0V-7.1H1.812v5.889H4.761V0ZM5.366-3.535a5.084,5.084,0,0,1,.378-2.107,2.852,2.852,0,0,1,.989-1.233A2.614,2.614,0,0,1,8.213-7.28a2.538,2.538,0,0,1,2.053.962,4.2,4.2,0,0,1,.793,2.739,4.268,4.268,0,0,1-.84,2.808,2.458,2.458,0,0,1-2,.894A2.481,2.481,0,0,1,6.206-.762,4.211,4.211,0,0,1,5.366-3.535Zm1.221-.049a3.041,3.041,0,0,0,.469,1.853,1.413,1.413,0,0,0,1.164.618,1.4,1.4,0,0,0,1.159-.613,3.137,3.137,0,0,0,.46-1.882,3.068,3.068,0,0,0-.447-1.841,1.4,1.4,0,0,0-1.171-.6,1.413,1.413,0,0,0-1.179.6A3.084,3.084,0,0,0,6.587-3.584ZM13.311,0V-5.947H11.567V-7.158H16.23v1.211H14.492V0ZM17,0V-7.158h4.355v1.211H18.184V-4.36h2.949v1.206H18.184v1.943h3.281V0Zm7.739-7.158H26.9a3.214,3.214,0,0,1,1.237.183,2.072,2.072,0,0,1,.768.618,3.176,3.176,0,0,1,.551,1.128,6.318,6.318,0,0,1,.2,1.724,5.543,5.543,0,0,1-.21,1.614,3.237,3.237,0,0,1-.532,1.086,2.061,2.061,0,0,1-.778.6,2.909,2.909,0,0,1-1.173.2H24.741Zm1.182,1.211v4.736h.889a2.314,2.314,0,0,0,.828-.107,1,1,0,0,0,.42-.324,1.858,1.858,0,0,0,.271-.685,5.716,5.716,0,0,0,.107-1.234,5.626,5.626,0,0,0-.11-1.254,1.66,1.66,0,0,0-.342-.722,1.088,1.088,0,0,0-.564-.346,4.688,4.688,0,0,0-.962-.063ZM30.669,0V-7.158h4.355v1.211H31.851V-4.36H34.8v1.206H31.851v1.943h3.281V0Zm5.5,0V-7.1h1.182v5.889H40.3V0Z" transform="translate(812.951 11748.826)" fill="#1a1818"/>
    <path id="Trazado_197450" data-name="Trazado 197450" d="M.581,0V-7.158H2.353L3.42-2.271,4.479-7.158H6.26V0h-1.1V-5.64L3.986,0H2.846L1.685-5.64V0ZM7.432,0V-7.158h4.355v1.211H8.613V-4.36h2.949v1.206H8.613v1.943h3.281V0Zm5.459-7.158h2.161a3.214,3.214,0,0,1,1.237.183,2.072,2.072,0,0,1,.768.618,3.176,3.176,0,0,1,.551,1.128,6.318,6.318,0,0,1,.2,1.724,5.543,5.543,0,0,1-.21,1.614,3.237,3.237,0,0,1-.532,1.086,2.061,2.061,0,0,1-.778.6,2.909,2.909,0,0,1-1.173.2H12.891Zm1.182,1.211v4.736h.889a2.314,2.314,0,0,0,.828-.107,1,1,0,0,0,.42-.324,1.858,1.858,0,0,0,.271-.685,5.716,5.716,0,0,0,.107-1.234,5.626,5.626,0,0,0-.11-1.254,1.66,1.66,0,0,0-.342-.722,1.088,1.088,0,0,0-.564-.346,4.688,4.688,0,0,0-.962-.063ZM18.779,0V-7.158h1.182V0Zm6.074-2.632L26-2.187a3.217,3.217,0,0,1-.894,1.755,2.235,2.235,0,0,1-1.538.554,2.277,2.277,0,0,1-1.86-.884,4.271,4.271,0,0,1-.82-2.754,4.48,4.48,0,0,1,.826-2.866,2.344,2.344,0,0,1,1.931-.9,2.227,2.227,0,0,1,1.652.674,2.923,2.923,0,0,1,.694,1.421l-1.172.342a1.584,1.584,0,0,0-.448-.891,1.125,1.125,0,0,0-.79-.31,1.258,1.258,0,0,0-1.062.566,3.261,3.261,0,0,0-.411,1.87,3.47,3.47,0,0,0,.4,1.924,1.219,1.219,0,0,0,1.04.571,1.076,1.076,0,0,0,.811-.364A2.306,2.306,0,0,0,24.854-2.632ZM32.31,0H31.025l-.514-1.621h-2.35L27.676,0h-1.26L28.7-7.158h1.255Zm-2.18-2.832-.81-2.656-.8,2.656ZM32.915,0V-7.158h1.772l1.067,4.888,1.059-4.888h1.781V0h-1.1V-5.64L36.32,0H35.18L34.019-5.64V0Zm6.851,0V-7.158h4.355v1.211H40.947V-4.36H43.9v1.206H40.947v1.943h3.281V0Zm5.479,0V-7.158H46.4l2.4,4.78v-4.78h1.1V0H48.711L46.348-4.668V0Zm7.227,0V-5.947H50.728V-7.158h4.663v1.211H53.652V0Zm3.307-3.535a5.084,5.084,0,0,1,.378-2.107,2.852,2.852,0,0,1,.989-1.233,2.614,2.614,0,0,1,1.479-.405,2.538,2.538,0,0,1,2.053.962,4.2,4.2,0,0,1,.793,2.739,4.268,4.268,0,0,1-.84,2.808,2.458,2.458,0,0,1-2,.894,2.481,2.481,0,0,1-2.012-.884A4.211,4.211,0,0,1,55.778-3.535ZM57-3.584a3.041,3.041,0,0,0,.469,1.853,1.413,1.413,0,0,0,1.164.618,1.4,1.4,0,0,0,1.159-.613,3.137,3.137,0,0,0,.46-1.882A3.068,3.068,0,0,0,59.8-5.449a1.4,1.4,0,0,0-1.171-.6,1.413,1.413,0,0,0-1.179.6A3.084,3.084,0,0,0,57-3.584Z" transform="translate(802.252 11760.826)" fill="#1a1818"/>
    <path id="Trazado_197451" data-name="Trazado 197451" d="M.605,0V-7.158H4.629v1.211H1.787v1.694H4.248v1.211H1.787V0Zm5,0V-7.158H9.966v1.211H6.792V-4.36H9.741v1.206H6.792v1.943h3.281V0Zm9.224-2.632,1.147.444a3.217,3.217,0,0,1-.894,1.755A2.235,2.235,0,0,1,13.55.122a2.277,2.277,0,0,1-1.86-.884,4.271,4.271,0,0,1-.82-2.754A4.48,4.48,0,0,1,11.7-6.382a2.344,2.344,0,0,1,1.931-.9,2.227,2.227,0,0,1,1.652.674,2.923,2.923,0,0,1,.694,1.421L14.8-4.844a1.584,1.584,0,0,0-.448-.891,1.125,1.125,0,0,0-.79-.31,1.258,1.258,0,0,0-1.062.566,3.261,3.261,0,0,0-.411,1.87,3.47,3.47,0,0,0,.4,1.924,1.219,1.219,0,0,0,1.04.571,1.076,1.076,0,0,0,.811-.364A2.306,2.306,0,0,0,14.834-2.632ZM17,0V-7.158h1.182v2.817h2.329V-7.158h1.182V0H20.508V-3.13H18.179V0ZM28.208,0H26.923l-.514-1.621H24.06L23.574,0h-1.26L24.6-7.158h1.255Zm-2.18-2.832-.81-2.656-.8,2.656ZM30.8-7.158h2.161a3.214,3.214,0,0,1,1.237.183,2.072,2.072,0,0,1,.768.618,3.176,3.176,0,0,1,.551,1.128,6.318,6.318,0,0,1,.2,1.724,5.543,5.543,0,0,1-.21,1.614,3.237,3.237,0,0,1-.532,1.086,2.061,2.061,0,0,1-.778.6,2.909,2.909,0,0,1-1.173.2H30.8Zm1.182,1.211v4.736h.889a2.314,2.314,0,0,0,.828-.107,1,1,0,0,0,.42-.324,1.858,1.858,0,0,0,.271-.685A5.716,5.716,0,0,0,34.5-3.562a5.626,5.626,0,0,0-.11-1.254,1.66,1.66,0,0,0-.342-.722,1.088,1.088,0,0,0-.564-.346,4.688,4.688,0,0,0-.962-.063ZM36.731,0V-7.158h4.355v1.211H37.913V-4.36h2.949v1.206H37.913v1.943h3.281V0Z" transform="translate(898.411 11748.826)" fill="#1a1818"/>
    <path id="Trazado_197452" data-name="Trazado 197452" d="M2.1,0,0-7.158H1.284l1.487,5.3,1.438-5.3h1.26L3.364,0ZM6.069,0V-7.158h4.355v1.211H7.251V-4.36H10.2v1.206H7.251v1.943h3.281V0Zm5.479,0V-7.158H12.7l2.4,4.78v-4.78h1.1V0H15.015L12.651-4.668V0Zm9.663-2.632,1.147.444a3.217,3.217,0,0,1-.894,1.755,2.235,2.235,0,0,1-1.538.554,2.277,2.277,0,0,1-1.86-.884,4.271,4.271,0,0,1-.82-2.754,4.48,4.48,0,0,1,.826-2.866A2.344,2.344,0,0,1,20-7.28a2.227,2.227,0,0,1,1.652.674,2.923,2.923,0,0,1,.694,1.421l-1.172.342a1.584,1.584,0,0,0-.448-.891,1.125,1.125,0,0,0-.79-.31,1.258,1.258,0,0,0-1.062.566,3.261,3.261,0,0,0-.411,1.87,3.47,3.47,0,0,0,.4,1.924,1.219,1.219,0,0,0,1.04.571,1.076,1.076,0,0,0,.811-.364A2.306,2.306,0,0,0,21.211-2.632ZM23.335,0V-7.158h1.182V0Zm2.3,0V-7.158h1.772l1.067,4.888,1.059-4.888h1.781V0h-1.1V-5.64L29.04,0H27.9L26.738-5.64V0Zm6.812,0V-7.158h1.182V0Zm2.319,0V-7.158h4.355v1.211H35.947V-4.36H38.9v1.206H35.947v1.943h3.281V0Zm5.479,0V-7.158H41.4l2.4,4.78v-4.78h1.1V0H43.711L41.348-4.668V0Zm7.227,0V-5.947H45.728V-7.158h4.663v1.211H48.652V0Zm3.307-3.535a5.084,5.084,0,0,1,.378-2.107,2.852,2.852,0,0,1,.989-1.233,2.614,2.614,0,0,1,1.479-.405,2.538,2.538,0,0,1,2.053.962,4.2,4.2,0,0,1,.793,2.739,4.268,4.268,0,0,1-.84,2.808,2.458,2.458,0,0,1-2,.894,2.481,2.481,0,0,1-2.012-.884A4.211,4.211,0,0,1,50.778-3.535ZM52-3.584a3.041,3.041,0,0,0,.469,1.853,1.413,1.413,0,0,0,1.164.618,1.4,1.4,0,0,0,1.159-.613,3.137,3.137,0,0,0,.46-1.882A3.068,3.068,0,0,0,54.8-5.449a1.4,1.4,0,0,0-1.171-.6,1.413,1.413,0,0,0-1.179.6A3.084,3.084,0,0,0,52-3.584Z" transform="translate(890.812 11760.826)" fill="#1a1818"/>
    <path id="Trazado_197453" data-name="Trazado 197453" d="M4.355-2.632,5.5-2.187A3.217,3.217,0,0,1,4.609-.432,2.235,2.235,0,0,1,3.071.122a2.277,2.277,0,0,1-1.86-.884,4.271,4.271,0,0,1-.82-2.754,4.48,4.48,0,0,1,.826-2.866,2.344,2.344,0,0,1,1.931-.9A2.227,2.227,0,0,1,4.8-6.606a2.923,2.923,0,0,1,.694,1.421l-1.172.342a1.584,1.584,0,0,0-.448-.891,1.125,1.125,0,0,0-.79-.31,1.258,1.258,0,0,0-1.062.566,3.261,3.261,0,0,0-.411,1.87,3.47,3.47,0,0,0,.4,1.924,1.219,1.219,0,0,0,1.04.571,1.076,1.076,0,0,0,.811-.364A2.306,2.306,0,0,0,4.355-2.632ZM11.812,0H10.527l-.514-1.621H7.663L7.178,0H5.918L8.2-7.158H9.459ZM9.631-2.832l-.81-2.656-.8,2.656ZM12.446,0V-7.158H13.6L16-2.378v-4.78h1.1V0H15.913L13.55-4.668V0Zm7.227,0V-5.947H17.93V-7.158h4.663v1.211H20.854V0Zm3.652,0V-7.158h1.182V0Zm2.31-7.158H27.8a3.214,3.214,0,0,1,1.237.183,2.072,2.072,0,0,1,.768.618,3.176,3.176,0,0,1,.551,1.128,6.318,6.318,0,0,1,.2,1.724,5.543,5.543,0,0,1-.21,1.614A3.237,3.237,0,0,1,29.81-.806a2.061,2.061,0,0,1-.778.6,2.909,2.909,0,0,1-1.173.2H25.635Zm1.182,1.211v4.736h.889a2.314,2.314,0,0,0,.828-.107,1,1,0,0,0,.42-.324,1.858,1.858,0,0,0,.271-.685,5.716,5.716,0,0,0,.107-1.234,5.626,5.626,0,0,0-.11-1.254,1.66,1.66,0,0,0-.342-.722,1.088,1.088,0,0,0-.564-.346,4.688,4.688,0,0,0-.962-.063ZM36.855,0H35.571l-.514-1.621h-2.35L32.222,0h-1.26l2.286-7.158H34.5Zm-2.18-2.832-.81-2.656-.8,2.656Zm2.8-4.326h2.161a3.214,3.214,0,0,1,1.237.183,2.072,2.072,0,0,1,.768.618,3.176,3.176,0,0,1,.551,1.128,6.318,6.318,0,0,1,.2,1.724,5.543,5.543,0,0,1-.21,1.614,3.237,3.237,0,0,1-.532,1.086,2.061,2.061,0,0,1-.778.6A2.909,2.909,0,0,1,39.7,0H37.471Zm1.182,1.211v4.736h.889a2.314,2.314,0,0,0,.828-.107,1,1,0,0,0,.42-.324,1.858,1.858,0,0,0,.271-.685,5.716,5.716,0,0,0,.107-1.234,5.626,5.626,0,0,0-.11-1.254,1.66,1.66,0,0,0-.342-.722,1.088,1.088,0,0,0-.564-.346,4.688,4.688,0,0,0-.962-.063Zm7.017-1.211H47.83a3.214,3.214,0,0,1,1.237.183,2.072,2.072,0,0,1,.768.618,3.176,3.176,0,0,1,.551,1.128,6.318,6.318,0,0,1,.2,1.724,5.543,5.543,0,0,1-.21,1.614,3.237,3.237,0,0,1-.532,1.086,2.061,2.061,0,0,1-.778.6,2.909,2.909,0,0,1-1.173.2H45.669Zm1.182,1.211v4.736h.889a2.314,2.314,0,0,0,.828-.107,1,1,0,0,0,.42-.324,1.858,1.858,0,0,0,.271-.685,5.716,5.716,0,0,0,.107-1.234,5.626,5.626,0,0,0-.11-1.254,1.66,1.66,0,0,0-.342-.722,1.088,1.088,0,0,0-.564-.346,4.688,4.688,0,0,0-.962-.063ZM51.6,0V-7.158h4.355v1.211H52.778V-4.36h2.949v1.206H52.778v1.943H56.06V0Z" transform="translate(964.031 11742.826)" fill="#1a1818"/>
    <path id="Trazado_197454" data-name="Trazado 197454" d="M.586-7.158H1.768v3.877A9.546,9.546,0,0,0,1.812-2.1a1.193,1.193,0,0,0,.374.732,1.143,1.143,0,0,0,.78.259,1.137,1.137,0,0,0,.67-.183A.917.917,0,0,0,3.992-1.8a6.242,6.242,0,0,0,.1-1.394v-3.96H5.269V-3.4a9.941,9.941,0,0,1-.154,2.083,1.769,1.769,0,0,1-.693,1.04A2.342,2.342,0,0,1,3,.122a2.649,2.649,0,0,1-1.433-.33,1.872,1.872,0,0,1-.747-.928,7,7,0,0,1-.232-2.2ZM6.528,0V-7.158H7.681l2.4,4.78v-4.78h1.1V0H10L7.632-4.668V0ZM12.4,0V-7.158h1.182V0Zm2.31-7.158h2.161a3.214,3.214,0,0,1,1.237.183,2.072,2.072,0,0,1,.768.618,3.176,3.176,0,0,1,.551,1.128,6.318,6.318,0,0,1,.2,1.724,5.543,5.543,0,0,1-.21,1.614,3.237,3.237,0,0,1-.532,1.086,2.061,2.061,0,0,1-.778.6,2.909,2.909,0,0,1-1.173.2H14.707Zm1.182,1.211v4.736h.889a2.314,2.314,0,0,0,.828-.107,1,1,0,0,0,.42-.324,1.858,1.858,0,0,0,.271-.685A5.716,5.716,0,0,0,18.4-3.562a5.626,5.626,0,0,0-.11-1.254,1.66,1.66,0,0,0-.342-.722,1.088,1.088,0,0,0-.564-.346,4.688,4.688,0,0,0-.962-.063ZM25.928,0H24.643l-.514-1.621h-2.35L21.294,0h-1.26L22.32-7.158h1.255Zm-2.18-2.832-.81-2.656-.8,2.656Zm2.8-4.326H28.7a3.214,3.214,0,0,1,1.237.183,2.072,2.072,0,0,1,.768.618,3.176,3.176,0,0,1,.551,1.128,6.318,6.318,0,0,1,.2,1.724,5.543,5.543,0,0,1-.21,1.614,3.237,3.237,0,0,1-.532,1.086,2.061,2.061,0,0,1-.778.6,2.909,2.909,0,0,1-1.173.2H26.543Zm1.182,1.211v4.736h.889a2.314,2.314,0,0,0,.828-.107,1,1,0,0,0,.42-.324,1.858,1.858,0,0,0,.271-.685,5.716,5.716,0,0,0,.107-1.234,5.626,5.626,0,0,0-.11-1.254,1.66,1.66,0,0,0-.342-.722,1.088,1.088,0,0,0-.564-.346,4.688,4.688,0,0,0-.962-.063ZM32.471,0V-7.158h4.355v1.211H33.652V-4.36H36.6v1.206H33.652v1.943h3.281V0Zm5.166-2.334,1.157-.137q.2,1.372,1.279,1.372a1.206,1.206,0,0,0,.845-.281.9.9,0,0,0,.308-.7.764.764,0,0,0-.107-.415.791.791,0,0,0-.327-.281,9.13,9.13,0,0,0-1.064-.368,3.606,3.606,0,0,1-1.108-.5,1.888,1.888,0,0,1-.559-.7,2.16,2.16,0,0,1-.208-.939,2.1,2.1,0,0,1,.266-1.054,1.74,1.74,0,0,1,.735-.707A2.529,2.529,0,0,1,40.01-7.28a2.229,2.229,0,0,1,1.616.562,2.239,2.239,0,0,1,.615,1.606l-1.187.063a1.282,1.282,0,0,0-.337-.806,1.076,1.076,0,0,0-.737-.229,1.186,1.186,0,0,0-.737.2.6.6,0,0,0-.259.5.621.621,0,0,0,.235.492,3.331,3.331,0,0,0,1.079.439,4.433,4.433,0,0,1,1.291.545,1.853,1.853,0,0,1,.608.737,2.588,2.588,0,0,1,.21,1.1,2.251,2.251,0,0,1-.574,1.567,2.3,2.3,0,0,1-1.794.635Q37.881.122,37.637-2.334ZM50.671,0H49.387l-.514-1.621h-2.35L46.038,0h-1.26l2.286-7.158h1.255Zm-2.18-2.832-.81-2.656-.8,2.656Z" transform="translate(967.062 11754.826)" fill="#1a1818"/>
    <path id="Trazado_197455" data-name="Trazado 197455" d="M.6,0V-7.158H3.1a3.477,3.477,0,0,1,1.367.193,1.516,1.516,0,0,1,.674.669A2.319,2.319,0,0,1,5.4-5.156,2.127,2.127,0,0,1,5-3.8a1.792,1.792,0,0,1-1.145.645,2.961,2.961,0,0,1,.63.6A8.46,8.46,0,0,1,5.161-1.4L5.874,0H4.46L3.6-1.558a10.227,10.227,0,0,0-.629-1.057.929.929,0,0,0-.352-.293,1.607,1.607,0,0,0-.6-.081H1.782V0ZM1.782-4.131h.879A4.4,4.4,0,0,0,3.687-4.2a.655.655,0,0,0,.356-.286,1.052,1.052,0,0,0,.137-.571.984.984,0,0,0-.137-.549.7.7,0,0,0-.371-.286,4.691,4.691,0,0,0-.962-.054H1.782ZM6.519,0V-7.158h4.355v1.211H7.7V-4.36h2.949v1.206H7.7v1.943h3.281V0Zm5.469,0V-7.158h4.355v1.211H13.169V-4.36h2.949v1.206H13.169v1.943H16.45V0Zm5.449,0V-7.158h1.772l1.067,4.888,1.059-4.888h1.781V0h-1.1V-5.64L20.842,0H19.7L18.54-5.64V0Zm6.846,0V-7.158h1.9a5.822,5.822,0,0,1,1.392.1,1.577,1.577,0,0,1,.862.708,2.6,2.6,0,0,1,.339,1.4,2.639,2.639,0,0,1-.293,1.3,1.7,1.7,0,0,1-.732.737A3.8,3.8,0,0,1,26.24-2.7h-.776V0Zm1.182-5.947v2.036h.656a2.858,2.858,0,0,0,.9-.093.8.8,0,0,0,.389-.335,1.1,1.1,0,0,0,.152-.595,1.1,1.1,0,0,0-.157-.6.773.773,0,0,0-.387-.328,3.539,3.539,0,0,0-.974-.083ZM34.449,0H33.164L32.65-1.621H30.3L29.815,0h-1.26l2.286-7.158H32.1Zm-2.18-2.832-.81-2.656-.8,2.656Zm6.56.2,1.147.444a3.217,3.217,0,0,1-.894,1.755,2.235,2.235,0,0,1-1.538.554,2.277,2.277,0,0,1-1.86-.884,4.271,4.271,0,0,1-.82-2.754,4.48,4.48,0,0,1,.826-2.866,2.344,2.344,0,0,1,1.931-.9,2.227,2.227,0,0,1,1.652.674,2.923,2.923,0,0,1,.694,1.421l-1.172.342a1.584,1.584,0,0,0-.448-.891,1.125,1.125,0,0,0-.79-.31,1.258,1.258,0,0,0-1.062.566,3.261,3.261,0,0,0-.411,1.87,3.47,3.47,0,0,0,.4,1.924,1.219,1.219,0,0,0,1.04.571,1.076,1.076,0,0,0,.811-.364A2.306,2.306,0,0,0,38.829-2.632ZM46.285,0H45l-.514-1.621h-2.35L41.651,0h-1.26l2.286-7.158h1.255ZM44.1-2.832l-.81-2.656-.8,2.656ZM46.91,0V-7.158h2.5a3.477,3.477,0,0,1,1.367.193,1.516,1.516,0,0,1,.674.669,2.319,2.319,0,0,1,.264,1.14,2.127,2.127,0,0,1-.4,1.353,1.792,1.792,0,0,1-1.145.645,2.961,2.961,0,0,1,.63.6A8.46,8.46,0,0,1,51.47-1.4L52.183,0H50.769l-.858-1.558a10.228,10.228,0,0,0-.629-1.057.929.929,0,0,0-.352-.293,1.607,1.607,0,0,0-.6-.081h-.244V0Zm1.182-4.131h.879A4.4,4.4,0,0,0,50-4.2a.655.655,0,0,0,.356-.286,1.052,1.052,0,0,0,.137-.571.984.984,0,0,0-.137-.549.7.7,0,0,0-.371-.286,4.691,4.691,0,0,0-.962-.054h-.928Z" transform="translate(966.151 11766.826)" fill="#1a1818"/>
    <path id="Trazado_197456" data-name="Trazado 197456" d="M.586-7.158H1.768v3.877A9.546,9.546,0,0,0,1.812-2.1a1.193,1.193,0,0,0,.374.732,1.143,1.143,0,0,0,.78.259,1.137,1.137,0,0,0,.67-.183A.917.917,0,0,0,3.992-1.8a6.242,6.242,0,0,0,.1-1.394v-3.96H5.269V-3.4a9.941,9.941,0,0,1-.154,2.083,1.769,1.769,0,0,1-.693,1.04A2.342,2.342,0,0,1,3,.122a2.649,2.649,0,0,1-1.433-.33,1.872,1.872,0,0,1-.747-.928,7,7,0,0,1-.232-2.2ZM6.528,0V-7.158H7.681l2.4,4.78v-4.78h1.1V0H10L7.632-4.668V0ZM12.4,0V-7.158h1.182V0Zm2.31-7.158h2.161a3.214,3.214,0,0,1,1.237.183,2.072,2.072,0,0,1,.768.618,3.176,3.176,0,0,1,.551,1.128,6.318,6.318,0,0,1,.2,1.724,5.543,5.543,0,0,1-.21,1.614,3.237,3.237,0,0,1-.532,1.086,2.061,2.061,0,0,1-.778.6,2.909,2.909,0,0,1-1.173.2H14.707Zm1.182,1.211v4.736h.889a2.314,2.314,0,0,0,.828-.107,1,1,0,0,0,.42-.324,1.858,1.858,0,0,0,.271-.685A5.716,5.716,0,0,0,18.4-3.562a5.626,5.626,0,0,0-.11-1.254,1.66,1.66,0,0,0-.342-.722,1.088,1.088,0,0,0-.564-.346,4.688,4.688,0,0,0-.962-.063ZM25.928,0H24.643l-.514-1.621h-2.35L21.294,0h-1.26L22.32-7.158h1.255Zm-2.18-2.832-.81-2.656-.8,2.656Zm2.8-4.326H28.7a3.214,3.214,0,0,1,1.237.183,2.072,2.072,0,0,1,.768.618,3.176,3.176,0,0,1,.551,1.128,6.318,6.318,0,0,1,.2,1.724,5.543,5.543,0,0,1-.21,1.614,3.237,3.237,0,0,1-.532,1.086,2.061,2.061,0,0,1-.778.6,2.909,2.909,0,0,1-1.173.2H26.543Zm1.182,1.211v4.736h.889a2.314,2.314,0,0,0,.828-.107,1,1,0,0,0,.42-.324,1.858,1.858,0,0,0,.271-.685,5.716,5.716,0,0,0,.107-1.234,5.626,5.626,0,0,0-.11-1.254,1.66,1.66,0,0,0-.342-.722,1.088,1.088,0,0,0-.564-.346,4.688,4.688,0,0,0-.962-.063ZM32.471,0V-7.158h4.355v1.211H33.652V-4.36H36.6v1.206H33.652v1.943h3.281V0Zm5.166-2.334,1.157-.137q.2,1.372,1.279,1.372a1.206,1.206,0,0,0,.845-.281.9.9,0,0,0,.308-.7.764.764,0,0,0-.107-.415.791.791,0,0,0-.327-.281,9.13,9.13,0,0,0-1.064-.368,3.606,3.606,0,0,1-1.108-.5,1.888,1.888,0,0,1-.559-.7,2.16,2.16,0,0,1-.208-.939,2.1,2.1,0,0,1,.266-1.054,1.74,1.74,0,0,1,.735-.707A2.529,2.529,0,0,1,40.01-7.28a2.229,2.229,0,0,1,1.616.562,2.239,2.239,0,0,1,.615,1.606l-1.187.063a1.282,1.282,0,0,0-.337-.806,1.076,1.076,0,0,0-.737-.229,1.186,1.186,0,0,0-.737.2.6.6,0,0,0-.259.5.621.621,0,0,0,.235.492,3.331,3.331,0,0,0,1.079.439,4.433,4.433,0,0,1,1.291.545,1.853,1.853,0,0,1,.608.737,2.588,2.588,0,0,1,.21,1.1,2.251,2.251,0,0,1-.574,1.567,2.3,2.3,0,0,1-1.794.635Q37.881.122,37.637-2.334ZM45.684,0V-7.158h1.9a5.822,5.822,0,0,1,1.392.1,1.577,1.577,0,0,1,.862.708,2.6,2.6,0,0,1,.339,1.4,2.639,2.639,0,0,1-.293,1.3,1.7,1.7,0,0,1-.732.737,3.8,3.8,0,0,1-1.514.212h-.776V0Zm1.182-5.947v2.036h.656a2.858,2.858,0,0,0,.9-.093.8.8,0,0,0,.389-.335,1.1,1.1,0,0,0,.152-.595,1.1,1.1,0,0,0-.157-.6.773.773,0,0,0-.387-.328,3.539,3.539,0,0,0-.974-.083Zm4.048,2.412a5.084,5.084,0,0,1,.378-2.107,2.852,2.852,0,0,1,.989-1.233A2.614,2.614,0,0,1,53.76-7.28a2.538,2.538,0,0,1,2.053.962,4.2,4.2,0,0,1,.793,2.739,4.268,4.268,0,0,1-.84,2.808,2.458,2.458,0,0,1-2,.894,2.481,2.481,0,0,1-2.012-.884A4.211,4.211,0,0,1,50.913-3.535Zm1.221-.049A3.041,3.041,0,0,0,52.6-1.731a1.413,1.413,0,0,0,1.164.618,1.4,1.4,0,0,0,1.159-.613,3.137,3.137,0,0,0,.46-1.882,3.068,3.068,0,0,0-.447-1.841,1.4,1.4,0,0,0-1.171-.6,1.413,1.413,0,0,0-1.179.6A3.084,3.084,0,0,0,52.134-3.584ZM57.539,0V-7.158h2.5a3.477,3.477,0,0,1,1.367.193,1.516,1.516,0,0,1,.674.669,2.319,2.319,0,0,1,.264,1.14,2.127,2.127,0,0,1-.4,1.353,1.792,1.792,0,0,1-1.145.645,2.961,2.961,0,0,1,.63.6A8.46,8.46,0,0,1,62.1-1.4L62.813,0H61.4l-.858-1.558a10.228,10.228,0,0,0-.629-1.057.929.929,0,0,0-.352-.293,1.607,1.607,0,0,0-.6-.081h-.244V0Zm1.182-4.131H59.6A4.4,4.4,0,0,0,60.625-4.2a.655.655,0,0,0,.356-.286,1.052,1.052,0,0,0,.137-.571.984.984,0,0,0-.137-.549.7.7,0,0,0-.371-.286,4.691,4.691,0,0,0-.962-.054h-.928Z" transform="translate(1033.892 11748.826)" fill="#1a1818"/>
    <path id="Trazado_197457" data-name="Trazado 197457" d="M.6,0V-7.158H3.1a3.477,3.477,0,0,1,1.367.193,1.516,1.516,0,0,1,.674.669A2.319,2.319,0,0,1,5.4-5.156,2.127,2.127,0,0,1,5-3.8a1.792,1.792,0,0,1-1.145.645,2.961,2.961,0,0,1,.63.6A8.46,8.46,0,0,1,5.161-1.4L5.874,0H4.46L3.6-1.558a10.227,10.227,0,0,0-.629-1.057.929.929,0,0,0-.352-.293,1.607,1.607,0,0,0-.6-.081H1.782V0ZM1.782-4.131h.879A4.4,4.4,0,0,0,3.687-4.2a.655.655,0,0,0,.356-.286,1.052,1.052,0,0,0,.137-.571.984.984,0,0,0-.137-.549.7.7,0,0,0-.371-.286,4.691,4.691,0,0,0-.962-.054H1.782ZM6.519,0V-7.158h4.355v1.211H7.7V-4.36h2.949v1.206H7.7v1.943h3.281V0Zm5.469,0V-7.158h4.355v1.211H13.169V-4.36h2.949v1.206H13.169v1.943H16.45V0Zm5.449,0V-7.158h1.772l1.067,4.888,1.059-4.888h1.781V0h-1.1V-5.64L20.842,0H19.7L18.54-5.64V0Zm6.846,0V-7.158h1.9a5.822,5.822,0,0,1,1.392.1,1.577,1.577,0,0,1,.862.708,2.6,2.6,0,0,1,.339,1.4,2.639,2.639,0,0,1-.293,1.3,1.7,1.7,0,0,1-.732.737A3.8,3.8,0,0,1,26.24-2.7h-.776V0Zm1.182-5.947v2.036h.656a2.858,2.858,0,0,0,.9-.093.8.8,0,0,0,.389-.335,1.1,1.1,0,0,0,.152-.595,1.1,1.1,0,0,0-.157-.6.773.773,0,0,0-.387-.328,3.539,3.539,0,0,0-.974-.083ZM34.449,0H33.164L32.65-1.621H30.3L29.815,0h-1.26l2.286-7.158H32.1Zm-2.18-2.832-.81-2.656-.8,2.656ZM39.8-.908a3.839,3.839,0,0,0,.947.605L40.308.718a2.589,2.589,0,0,1-.518-.264q-.059-.034-.8-.64a2.8,2.8,0,0,1-1.328.308,2.534,2.534,0,0,1-2.053-.95,4.226,4.226,0,0,1-.784-2.751,4.2,4.2,0,0,1,.789-2.754,2.564,2.564,0,0,1,2.07-.947,2.532,2.532,0,0,1,2.05.95,4.223,4.223,0,0,1,.784,2.751,5.683,5.683,0,0,1-.175,1.5A3.75,3.75,0,0,1,39.8-.908Zm-.952-.815A3.137,3.137,0,0,0,39.3-3.574a3.107,3.107,0,0,0-.455-1.865,1.4,1.4,0,0,0-1.169-.605,1.407,1.407,0,0,0-1.171.605,3.084,3.084,0,0,0-.457,1.86,3.163,3.163,0,0,0,.457,1.887,1.37,1.37,0,0,0,1.135.613,1.172,1.172,0,0,0,.483-.1,3.319,3.319,0,0,0-.732-.449l.332-.825A3.848,3.848,0,0,1,38.843-1.724Zm2.6-5.435h1.182v3.877A9.547,9.547,0,0,0,42.667-2.1a1.193,1.193,0,0,0,.374.732,1.143,1.143,0,0,0,.78.259,1.137,1.137,0,0,0,.67-.183.917.917,0,0,0,.355-.508,6.242,6.242,0,0,0,.1-1.394v-3.96h1.182V-3.4a9.941,9.941,0,0,1-.154,2.083,1.769,1.769,0,0,1-.693,1.04,2.342,2.342,0,0,1-1.423.4,2.649,2.649,0,0,1-1.433-.33,1.872,1.872,0,0,1-.747-.928,7,7,0,0,1-.232-2.2ZM47.374,0V-7.158h4.355v1.211H48.555V-4.36H51.5v1.206H48.555v1.943h3.281V0Z" transform="translate(1039.201 11760.826)" fill="#1a1818"/>
    <path id="Trazado_197458" data-name="Trazado 197458" d="M4.355-2.632,5.5-2.187A3.217,3.217,0,0,1,4.609-.432,2.235,2.235,0,0,1,3.071.122a2.277,2.277,0,0,1-1.86-.884,4.271,4.271,0,0,1-.82-2.754,4.48,4.48,0,0,1,.826-2.866,2.344,2.344,0,0,1,1.931-.9A2.227,2.227,0,0,1,4.8-6.606a2.923,2.923,0,0,1,.694,1.421l-1.172.342a1.584,1.584,0,0,0-.448-.891,1.125,1.125,0,0,0-.79-.31,1.258,1.258,0,0,0-1.062.566,3.261,3.261,0,0,0-.411,1.87,3.47,3.47,0,0,0,.4,1.924,1.219,1.219,0,0,0,1.04.571,1.076,1.076,0,0,0,.811-.364A2.306,2.306,0,0,0,4.355-2.632ZM11.812,0H10.527l-.514-1.621H7.663L7.178,0H5.918L8.2-7.158H9.459ZM9.631-2.832l-.81-2.656-.8,2.656ZM12.446,0V-7.158H13.6L16-2.378v-4.78h1.1V0H15.913L13.55-4.668V0Zm7.227,0V-5.947H17.93V-7.158h4.663v1.211H20.854V0Zm3.652,0V-7.158h1.182V0Zm2.31-7.158H27.8a3.214,3.214,0,0,1,1.237.183,2.072,2.072,0,0,1,.768.618,3.176,3.176,0,0,1,.551,1.128,6.318,6.318,0,0,1,.2,1.724,5.543,5.543,0,0,1-.21,1.614A3.237,3.237,0,0,1,29.81-.806a2.061,2.061,0,0,1-.778.6,2.909,2.909,0,0,1-1.173.2H25.635Zm1.182,1.211v4.736h.889a2.314,2.314,0,0,0,.828-.107,1,1,0,0,0,.42-.324,1.858,1.858,0,0,0,.271-.685,5.716,5.716,0,0,0,.107-1.234,5.626,5.626,0,0,0-.11-1.254,1.66,1.66,0,0,0-.342-.722,1.088,1.088,0,0,0-.564-.346,4.688,4.688,0,0,0-.962-.063ZM36.855,0H35.571l-.514-1.621h-2.35L32.222,0h-1.26l2.286-7.158H34.5Zm-2.18-2.832-.81-2.656-.8,2.656Zm2.8-4.326h2.161a3.214,3.214,0,0,1,1.237.183,2.072,2.072,0,0,1,.768.618,3.176,3.176,0,0,1,.551,1.128,6.318,6.318,0,0,1,.2,1.724,5.543,5.543,0,0,1-.21,1.614,3.237,3.237,0,0,1-.532,1.086,2.061,2.061,0,0,1-.778.6A2.909,2.909,0,0,1,39.7,0H37.471Zm1.182,1.211v4.736h.889a2.314,2.314,0,0,0,.828-.107,1,1,0,0,0,.42-.324,1.858,1.858,0,0,0,.271-.685,5.716,5.716,0,0,0,.107-1.234,5.626,5.626,0,0,0-.11-1.254,1.66,1.66,0,0,0-.342-.722,1.088,1.088,0,0,0-.564-.346,4.688,4.688,0,0,0-.962-.063Zm7.017-1.211H47.83a3.214,3.214,0,0,1,1.237.183,2.072,2.072,0,0,1,.768.618,3.176,3.176,0,0,1,.551,1.128,6.318,6.318,0,0,1,.2,1.724,5.543,5.543,0,0,1-.21,1.614,3.237,3.237,0,0,1-.532,1.086,2.061,2.061,0,0,1-.778.6,2.909,2.909,0,0,1-1.173.2H45.669Zm1.182,1.211v4.736h.889a2.314,2.314,0,0,0,.828-.107,1,1,0,0,0,.42-.324,1.858,1.858,0,0,0,.271-.685,5.716,5.716,0,0,0,.107-1.234,5.626,5.626,0,0,0-.11-1.254,1.66,1.66,0,0,0-.342-.722,1.088,1.088,0,0,0-.564-.346,4.688,4.688,0,0,0-.962-.063ZM51.587,0V-1.372H52.71V0Zm2.28-7.158h2.161a3.214,3.214,0,0,1,1.237.183,2.072,2.072,0,0,1,.768.618,3.176,3.176,0,0,1,.551,1.128,6.318,6.318,0,0,1,.2,1.724,5.543,5.543,0,0,1-.21,1.614,3.237,3.237,0,0,1-.532,1.086,2.061,2.061,0,0,1-.778.6,2.909,2.909,0,0,1-1.173.2H53.867Zm1.182,1.211v4.736h.889a2.314,2.314,0,0,0,.828-.107,1,1,0,0,0,.42-.324,1.858,1.858,0,0,0,.271-.685,5.716,5.716,0,0,0,.107-1.234,5.626,5.626,0,0,0-.11-1.254,1.66,1.66,0,0,0-.342-.722,1.088,1.088,0,0,0-.564-.346,4.688,4.688,0,0,0-.962-.063ZM59.785,0V-1.372h1.123V0Z" transform="translate(1107.642 11748.826)" fill="#1a1818"/>
    <path id="Trazado_197459" data-name="Trazado 197459" d="M.6,0V-7.158H3.1a3.477,3.477,0,0,1,1.367.193,1.516,1.516,0,0,1,.674.669A2.319,2.319,0,0,1,5.4-5.156,2.127,2.127,0,0,1,5-3.8a1.792,1.792,0,0,1-1.145.645,2.961,2.961,0,0,1,.63.6A8.46,8.46,0,0,1,5.161-1.4L5.874,0H4.46L3.6-1.558a10.227,10.227,0,0,0-.629-1.057.929.929,0,0,0-.352-.293,1.607,1.607,0,0,0-.6-.081H1.782V0ZM1.782-4.131h.879A4.4,4.4,0,0,0,3.687-4.2a.655.655,0,0,0,.356-.286,1.052,1.052,0,0,0,.137-.571.984.984,0,0,0-.137-.549.7.7,0,0,0-.371-.286,4.691,4.691,0,0,0-.962-.054H1.782ZM6.519,0V-7.158h4.355v1.211H7.7V-4.36h2.949v1.206H7.7v1.943h3.281V0Zm5.469,0V-7.158h4.355v1.211H13.169V-4.36h2.949v1.206H13.169v1.943H16.45V0Zm5.449,0V-7.158h1.772l1.067,4.888,1.059-4.888h1.781V0h-1.1V-5.64L20.842,0H19.7L18.54-5.64V0Zm6.846,0V-7.158h1.9a5.822,5.822,0,0,1,1.392.1,1.577,1.577,0,0,1,.862.708,2.6,2.6,0,0,1,.339,1.4,2.639,2.639,0,0,1-.293,1.3,1.7,1.7,0,0,1-.732.737A3.8,3.8,0,0,1,26.24-2.7h-.776V0Zm1.182-5.947v2.036h.656a2.858,2.858,0,0,0,.9-.093.8.8,0,0,0,.389-.335,1.1,1.1,0,0,0,.152-.595,1.1,1.1,0,0,0-.157-.6.773.773,0,0,0-.387-.328,3.539,3.539,0,0,0-.974-.083ZM34.449,0H33.164L32.65-1.621H30.3L29.815,0h-1.26l2.286-7.158H32.1Zm-2.18-2.832-.81-2.656-.8,2.656Zm6.56.2,1.147.444a3.217,3.217,0,0,1-.894,1.755,2.235,2.235,0,0,1-1.538.554,2.277,2.277,0,0,1-1.86-.884,4.271,4.271,0,0,1-.82-2.754,4.48,4.48,0,0,1,.826-2.866,2.344,2.344,0,0,1,1.931-.9,2.227,2.227,0,0,1,1.652.674,2.923,2.923,0,0,1,.694,1.421l-1.172.342a1.584,1.584,0,0,0-.448-.891,1.125,1.125,0,0,0-.79-.31,1.258,1.258,0,0,0-1.062.566,3.261,3.261,0,0,0-.411,1.87,3.47,3.47,0,0,0,.4,1.924,1.219,1.219,0,0,0,1.04.571,1.076,1.076,0,0,0,.811-.364A2.306,2.306,0,0,0,38.829-2.632ZM46.285,0H45l-.514-1.621h-2.35L41.651,0h-1.26l2.286-7.158h1.255ZM44.1-2.832l-.81-2.656-.8,2.656Zm2.8-4.326h2.161a3.214,3.214,0,0,1,1.237.183,2.072,2.072,0,0,1,.768.618,3.176,3.176,0,0,1,.551,1.128,6.318,6.318,0,0,1,.2,1.724,5.543,5.543,0,0,1-.21,1.614,3.237,3.237,0,0,1-.532,1.086,2.061,2.061,0,0,1-.778.6,2.909,2.909,0,0,1-1.173.2H46.9Zm1.182,1.211v4.736h.889a2.314,2.314,0,0,0,.828-.107,1,1,0,0,0,.42-.324,1.858,1.858,0,0,0,.271-.685A5.716,5.716,0,0,0,50.6-3.562a5.626,5.626,0,0,0-.11-1.254,1.66,1.66,0,0,0-.342-.722,1.088,1.088,0,0,0-.564-.346,4.688,4.688,0,0,0-.962-.063ZM58.121,0H56.836l-.514-1.621h-2.35L53.487,0h-1.26l2.286-7.158h1.255ZM55.94-2.832l-.81-2.656-.8,2.656Z" transform="translate(1109.451 11760.826)" fill="#1a1818"/>
    <g id="Grupo_135947" data-name="Grupo 135947" transform="translate(425 11697)">
      <g id="Grupo_135946" data-name="Grupo 135946" clip-path="url(#clip-path)">
        <line id="Línea_639" data-name="Línea 639" y2="434.875" transform="translate(0.375 33.275)" fill="none" stroke="#1a1818" stroke-miterlimit="10" stroke-width="0.75"/>
        <line id="Línea_640" data-name="Línea 640" y2="434.875" transform="translate(66.534 33.275)" fill="none" stroke="#1a1818" stroke-miterlimit="10" stroke-width="0.75"/>
        <line id="Línea_641" data-name="Línea 641" y2="434.875" transform="translate(121.172 33.275)" fill="none" stroke="#1a1818" stroke-miterlimit="10" stroke-width="0.75"/>
        <line id="Línea_642" data-name="Línea 642" y2="434.875" transform="translate(243.215 33.275)" fill="none" stroke="#1a1818" stroke-miterlimit="10" stroke-width="0.75"/>
        <line id="Línea_643" data-name="Línea 643" y2="434.875" transform="translate(358.619 33.275)" fill="none" stroke="#1a1818" stroke-miterlimit="10" stroke-width="0.75"/>
        <line id="Línea_644" data-name="Línea 644" y2="434.875" transform="translate(457.683 33.275)" fill="none" stroke="#1a1818" stroke-miterlimit="10" stroke-width="0.75"/>
        <line id="Línea_645" data-name="Línea 645" y2="434.875" transform="translate(530.737 33.275)" fill="none" stroke="#1a1818" stroke-miterlimit="10" stroke-width="0.75"/>
        <line id="Línea_646" data-name="Línea 646" y2="434.875" transform="translate(603.79 33.275)" fill="none" stroke="#1a1818" stroke-miterlimit="10" stroke-width="0.75"/>
        <line id="Línea_647" data-name="Línea 647" y2="434.875" transform="translate(749.897 33.275)" fill="none" stroke="#1a1818" stroke-miterlimit="10" stroke-width="0.75"/>
        <line id="Línea_648" data-name="Línea 648" y2="434.875" transform="translate(676.844 33.275)" fill="none" stroke="#1a1818" stroke-miterlimit="10" stroke-width="0.75"/>
        <line id="Línea_649" data-name="Línea 649" x2="749.522" transform="translate(0.375 33.275)" fill="none" stroke="#1a1818" stroke-miterlimit="10" stroke-width="0.75"/>
        <line id="Línea_650" data-name="Línea 650" x2="749.522" transform="translate(0.375 75.795)" fill="none" stroke="#1a1818" stroke-miterlimit="10" stroke-width="0.75"/>
        <line id="Línea_651" data-name="Línea 651" x2="749.522" transform="translate(0.375 98.875)" fill="none" stroke="#1a1818" stroke-miterlimit="10" stroke-width="0.75"/>
        <line id="Línea_652" data-name="Línea 652" x2="749.522" transform="translate(0.375 121.954)" fill="none" stroke="#1a1818" stroke-miterlimit="10" stroke-width="0.75"/>
        <line id="Línea_653" data-name="Línea 653" x2="749.522" transform="translate(0.375 145.034)" fill="none" stroke="#1a1818" stroke-miterlimit="10" stroke-width="0.75"/>
        <line id="Línea_654" data-name="Línea 654" x2="749.522" transform="translate(0.375 168.114)" fill="none" stroke="#1a1818" stroke-miterlimit="10" stroke-width="0.75"/>
        <line id="Línea_655" data-name="Línea 655" x2="749.522" transform="translate(0.375 191.193)" fill="none" stroke="#1a1818" stroke-miterlimit="10" stroke-width="0.75"/>
        <line id="Línea_656" data-name="Línea 656" x2="749.522" transform="translate(0.375 214.273)" fill="none" stroke="#1a1818" stroke-miterlimit="10" stroke-width="0.75"/>
        <line id="Línea_657" data-name="Línea 657" x2="749.522" transform="translate(0.375 237.353)" fill="none" stroke="#1a1818" stroke-miterlimit="10" stroke-width="0.75"/>
        <line id="Línea_658" data-name="Línea 658" x2="749.522" transform="translate(0.375 260.433)" fill="none" stroke="#1a1818" stroke-miterlimit="10" stroke-width="0.75"/>
        <line id="Línea_659" data-name="Línea 659" x2="749.522" transform="translate(0.375 283.512)" fill="none" stroke="#1a1818" stroke-miterlimit="10" stroke-width="0.75"/>
        <line id="Línea_660" data-name="Línea 660" x2="749.522" transform="translate(0.375 306.592)" fill="none" stroke="#1a1818" stroke-miterlimit="10" stroke-width="0.75"/>
        <line id="Línea_661" data-name="Línea 661" x2="749.522" transform="translate(0.375 329.672)" fill="none" stroke="#1a1818" stroke-miterlimit="10" stroke-width="0.75"/>
        <line id="Línea_662" data-name="Línea 662" x2="749.522" transform="translate(0.375 352.751)" fill="none" stroke="#1a1818" stroke-miterlimit="10" stroke-width="0.75"/>
        <line id="Línea_663" data-name="Línea 663" x2="749.522" transform="translate(0.375 375.831)" fill="none" stroke="#1a1818" stroke-miterlimit="10" stroke-width="0.75"/>
        <line id="Línea_664" data-name="Línea 664" x2="749.522" transform="translate(0.375 398.911)" fill="none" stroke="#1a1818" stroke-miterlimit="10" stroke-width="0.75"/>
        <line id="Línea_665" data-name="Línea 665" x2="749.522" transform="translate(0.375 421.991)" fill="none" stroke="#1a1818" stroke-miterlimit="10" stroke-width="0.75"/>
        <line id="Línea_666" data-name="Línea 666" x2="749.522" transform="translate(0.375 445.07)" fill="none" stroke="#1a1818" stroke-miterlimit="10" stroke-width="0.75"/>
        <line id="Línea_667" data-name="Línea 667" x2="749.522" transform="translate(0.375 468.15)" fill="none" stroke="#1a1818" stroke-miterlimit="10" stroke-width="0.75"/>
      </g>
    </g>
  </g>
</svg>
